<?xml version="1.0" standalone="no"?>
<!DOCTYPE svg PUBLIC "-//W3C//DTD SVG 20010904//EN"
 "http://www.w3.org/TR/2001/REC-SVG-20010904/DTD/svg10.dtd">
<svg version="1.0" xmlns="http://www.w3.org/2000/svg"
 width="1024.000000pt" height="1024.000000pt" viewBox="0 0 1024.000000 1024.000000"
 preserveAspectRatio="xMidYMid meet">
<metadata>
Created by potrace 1.16, written by Peter Selinger 2001-2019
</metadata>
<g transform="translate(0.000000,1024.000000) scale(0.100000,-0.100000)"
fill="#000000" stroke="none">
<path d="M0 5120 l0 -5120 5120 0 5120 0 0 5120 0 5120 -5120 0 -5120 0 0
-5120z m4305 2415 c95 -25 253 -109 333 -175 140 -117 254 -295 305 -475 22
-80 22 -81 22 -935 0 -939 1 -921 -62 -1078 -101 -254 -330 -461 -581 -526
-412 -107 -830 87 -1026 477 -90 181 -87 137 -86 1079 0 883 2 915 51 1061
100 301 367 527 699 591 52 10 286 -3 345 -19z m2608 -883 c16 -9 44 -34 61
-55 l31 -39 3 -1156 c2 -815 0 -1168 -8 -1195 -47 -161 -277 -183 -350 -33
l-21 45 -1 1148 c-1 1134 -1 1149 19 1193 25 54 58 87 110 106 46 17 114 11
156 -14z m-643 -547 c32 -16 63 -51 84 -92 14 -28 16 -100 16 -644 0 -602 0
-613 -21 -656 -59 -121 -208 -144 -305 -48 -33 34 -44 54 -52 96 -7 34 -10
265 -8 629 2 567 3 576 24 617 52 101 169 144 262 98z m1268 -280 c49 -21 81
-52 103 -100 17 -36 19 -71 19 -398 0 -301 -2 -364 -15 -395 -38 -89 -120
-132 -214 -111 -62 14 -100 44 -127 103 -24 51 -24 54 -24 396 0 210 4 360 11
383 29 106 146 164 247 122z m-4688 -74 c19 -10 49 -37 65 -60 l30 -43 6 -306
c6 -320 14 -389 59 -522 128 -383 468 -679 868 -756 99 -19 328 -18 432 2 222
42 434 157 606 329 185 184 292 401 323 650 6 50 11 203 11 340 0 240 1 253
23 295 70 139 292 113 338 -39 7 -24 9 -146 6 -366 -4 -315 -5 -334 -30 -430
-68 -264 -175 -469 -346 -664 -160 -183 -422 -355 -663 -435 -83 -27 -222 -56
-269 -56 l-28 0 2 -309 2 -309 240 -4 c264 -3 270 -5 331 -70 91 -96 61 -243
-61 -299 -38 -17 -80 -19 -705 -19 -625 0 -667 2 -705 19 -128 59 -153 215
-49 310 23 22 59 44 80 50 22 6 134 11 259 11 l220 0 0 308 -1 307 -24 3
c-169 19 -376 91 -533 186 -394 236 -641 576 -738 1014 -19 84 -22 138 -26
414 -5 312 -4 319 17 363 50 102 157 138 260 86z"/>
</g>
</svg>
