<?xml version="1.0" encoding="utf-8" standalone="no"?>
<!DOCTYPE svg PUBLIC "-//W3C//DTD SVG 1.1//EN"
  "http://www.w3.org/Graphics/SVG/1.1/DTD/svg11.dtd">
<svg xmlns:xlink="http://www.w3.org/1999/xlink" width="619.2pt" height="273.6pt" viewBox="0 0 619.2 273.6" xmlns="http://www.w3.org/2000/svg" version="1.1">
 <metadata>
  <rdf:RDF xmlns:dc="http://purl.org/dc/elements/1.1/" xmlns:cc="http://creativecommons.org/ns#" xmlns:rdf="http://www.w3.org/1999/02/22-rdf-syntax-ns#">
   <cc:Work>
    <dc:type rdf:resource="http://purl.org/dc/dcmitype/StillImage"/>
    <dc:date>2026-06-12T19:49:13.441314</dc:date>
    <dc:format>image/svg+xml</dc:format>
    <dc:creator>
     <cc:Agent>
      <dc:title>Matplotlib v3.10.6, https://matplotlib.org/</dc:title>
     </cc:Agent>
    </dc:creator>
   </cc:Work>
  </rdf:RDF>
 </metadata>
 <defs>
  <style type="text/css">*{stroke-linejoin: round; stroke-linecap: butt}</style>
 </defs>
 <g id="figure_1">
  <g id="patch_1">
   <path d="M 0 273.6 
L 619.2 273.6 
L 619.2 0 
L 0 0 
z
" style="fill: #ffffff"/>
  </g>
  <g id="axes_1">
   <g id="patch_2">
    <path d="M 39.58149 240.24351 
L 616.19976 240.24351 
L 616.19976 16.598678 
L 39.58149 16.598678 
z
" style="fill: #ffffff"/>
   </g>
   <g id="matplotlib.axis_1">
    <g id="xtick_1">
     <g id="line2d_1">
      <defs>
       <path id="mdb6eb85aad" d="M 0 0 
L 0 3.5 
" style="stroke: #000000; stroke-width: 0.8"/>
      </defs>
      <g>
       <use xlink:href="#mdb6eb85aad" x="46.445993" y="240.24351" style="stroke: #000000; stroke-width: 0.8"/>
      </g>
     </g>
     <g id="text_1">
      <!-- 0 -->
      <g transform="translate(43.264743 254.841947) scale(0.1 -0.1)">
       <defs>
        <path id="DejaVuSans-30" d="M 2034 4250 
Q 1547 4250 1301 3770 
Q 1056 3291 1056 2328 
Q 1056 1369 1301 889 
Q 1547 409 2034 409 
Q 2525 409 2770 889 
Q 3016 1369 3016 2328 
Q 3016 3291 2770 3770 
Q 2525 4250 2034 4250 
z
M 2034 4750 
Q 2819 4750 3233 4129 
Q 3647 3509 3647 2328 
Q 3647 1150 3233 529 
Q 2819 -91 2034 -91 
Q 1250 -91 836 529 
Q 422 1150 422 2328 
Q 422 3509 836 4129 
Q 1250 4750 2034 4750 
z
" transform="scale(0.015625)"/>
       </defs>
       <use xlink:href="#DejaVuSans-30"/>
      </g>
     </g>
    </g>
    <g id="xtick_2">
     <g id="line2d_2">
      <g>
       <use xlink:href="#mdb6eb85aad" x="137.972703" y="240.24351" style="stroke: #000000; stroke-width: 0.8"/>
      </g>
     </g>
     <g id="text_2">
      <!-- 20000 -->
      <g transform="translate(122.066453 254.841947) scale(0.1 -0.1)">
       <defs>
        <path id="DejaVuSans-32" d="M 1228 531 
L 3431 531 
L 3431 0 
L 469 0 
L 469 531 
Q 828 903 1448 1529 
Q 2069 2156 2228 2338 
Q 2531 2678 2651 2914 
Q 2772 3150 2772 3378 
Q 2772 3750 2511 3984 
Q 2250 4219 1831 4219 
Q 1534 4219 1204 4116 
Q 875 4013 500 3803 
L 500 4441 
Q 881 4594 1212 4672 
Q 1544 4750 1819 4750 
Q 2544 4750 2975 4387 
Q 3406 4025 3406 3419 
Q 3406 3131 3298 2873 
Q 3191 2616 2906 2266 
Q 2828 2175 2409 1742 
Q 1991 1309 1228 531 
z
" transform="scale(0.015625)"/>
       </defs>
       <use xlink:href="#DejaVuSans-32"/>
       <use xlink:href="#DejaVuSans-30" transform="translate(63.623047 0)"/>
       <use xlink:href="#DejaVuSans-30" transform="translate(127.246094 0)"/>
       <use xlink:href="#DejaVuSans-30" transform="translate(190.869141 0)"/>
       <use xlink:href="#DejaVuSans-30" transform="translate(254.492188 0)"/>
      </g>
     </g>
    </g>
    <g id="xtick_3">
     <g id="line2d_3">
      <g>
       <use xlink:href="#mdb6eb85aad" x="229.499412" y="240.24351" style="stroke: #000000; stroke-width: 0.8"/>
      </g>
     </g>
     <g id="text_3">
      <!-- 40000 -->
      <g transform="translate(213.593162 254.841947) scale(0.1 -0.1)">
       <defs>
        <path id="DejaVuSans-34" d="M 2419 4116 
L 825 1625 
L 2419 1625 
L 2419 4116 
z
M 2253 4666 
L 3047 4666 
L 3047 1625 
L 3713 1625 
L 3713 1100 
L 3047 1100 
L 3047 0 
L 2419 0 
L 2419 1100 
L 313 1100 
L 313 1709 
L 2253 4666 
z
" transform="scale(0.015625)"/>
       </defs>
       <use xlink:href="#DejaVuSans-34"/>
       <use xlink:href="#DejaVuSans-30" transform="translate(63.623047 0)"/>
       <use xlink:href="#DejaVuSans-30" transform="translate(127.246094 0)"/>
       <use xlink:href="#DejaVuSans-30" transform="translate(190.869141 0)"/>
       <use xlink:href="#DejaVuSans-30" transform="translate(254.492188 0)"/>
      </g>
     </g>
    </g>
    <g id="xtick_4">
     <g id="line2d_4">
      <g>
       <use xlink:href="#mdb6eb85aad" x="321.026122" y="240.24351" style="stroke: #000000; stroke-width: 0.8"/>
      </g>
     </g>
     <g id="text_4">
      <!-- 60000 -->
      <g transform="translate(305.119872 254.841947) scale(0.1 -0.1)">
       <defs>
        <path id="DejaVuSans-36" d="M 2113 2584 
Q 1688 2584 1439 2293 
Q 1191 2003 1191 1497 
Q 1191 994 1439 701 
Q 1688 409 2113 409 
Q 2538 409 2786 701 
Q 3034 994 3034 1497 
Q 3034 2003 2786 2293 
Q 2538 2584 2113 2584 
z
M 3366 4563 
L 3366 3988 
Q 3128 4100 2886 4159 
Q 2644 4219 2406 4219 
Q 1781 4219 1451 3797 
Q 1122 3375 1075 2522 
Q 1259 2794 1537 2939 
Q 1816 3084 2150 3084 
Q 2853 3084 3261 2657 
Q 3669 2231 3669 1497 
Q 3669 778 3244 343 
Q 2819 -91 2113 -91 
Q 1303 -91 875 529 
Q 447 1150 447 2328 
Q 447 3434 972 4092 
Q 1497 4750 2381 4750 
Q 2619 4750 2861 4703 
Q 3103 4656 3366 4563 
z
" transform="scale(0.015625)"/>
       </defs>
       <use xlink:href="#DejaVuSans-36"/>
       <use xlink:href="#DejaVuSans-30" transform="translate(63.623047 0)"/>
       <use xlink:href="#DejaVuSans-30" transform="translate(127.246094 0)"/>
       <use xlink:href="#DejaVuSans-30" transform="translate(190.869141 0)"/>
       <use xlink:href="#DejaVuSans-30" transform="translate(254.492188 0)"/>
      </g>
     </g>
    </g>
    <g id="xtick_5">
     <g id="line2d_5">
      <g>
       <use xlink:href="#mdb6eb85aad" x="412.552831" y="240.24351" style="stroke: #000000; stroke-width: 0.8"/>
      </g>
     </g>
     <g id="text_5">
      <!-- 80000 -->
      <g transform="translate(396.646581 254.841947) scale(0.1 -0.1)">
       <defs>
        <path id="DejaVuSans-38" d="M 2034 2216 
Q 1584 2216 1326 1975 
Q 1069 1734 1069 1313 
Q 1069 891 1326 650 
Q 1584 409 2034 409 
Q 2484 409 2743 651 
Q 3003 894 3003 1313 
Q 3003 1734 2745 1975 
Q 2488 2216 2034 2216 
z
M 1403 2484 
Q 997 2584 770 2862 
Q 544 3141 544 3541 
Q 544 4100 942 4425 
Q 1341 4750 2034 4750 
Q 2731 4750 3128 4425 
Q 3525 4100 3525 3541 
Q 3525 3141 3298 2862 
Q 3072 2584 2669 2484 
Q 3125 2378 3379 2068 
Q 3634 1759 3634 1313 
Q 3634 634 3220 271 
Q 2806 -91 2034 -91 
Q 1263 -91 848 271 
Q 434 634 434 1313 
Q 434 1759 690 2068 
Q 947 2378 1403 2484 
z
M 1172 3481 
Q 1172 3119 1398 2916 
Q 1625 2713 2034 2713 
Q 2441 2713 2670 2916 
Q 2900 3119 2900 3481 
Q 2900 3844 2670 4047 
Q 2441 4250 2034 4250 
Q 1625 4250 1398 4047 
Q 1172 3844 1172 3481 
z
" transform="scale(0.015625)"/>
       </defs>
       <use xlink:href="#DejaVuSans-38"/>
       <use xlink:href="#DejaVuSans-30" transform="translate(63.623047 0)"/>
       <use xlink:href="#DejaVuSans-30" transform="translate(127.246094 0)"/>
       <use xlink:href="#DejaVuSans-30" transform="translate(190.869141 0)"/>
       <use xlink:href="#DejaVuSans-30" transform="translate(254.492188 0)"/>
      </g>
     </g>
    </g>
    <g id="xtick_6">
     <g id="line2d_6">
      <g>
       <use xlink:href="#mdb6eb85aad" x="504.079541" y="240.24351" style="stroke: #000000; stroke-width: 0.8"/>
      </g>
     </g>
     <g id="text_6">
      <!-- 100000 -->
      <g transform="translate(484.992041 254.841947) scale(0.1 -0.1)">
       <defs>
        <path id="DejaVuSans-31" d="M 794 531 
L 1825 531 
L 1825 4091 
L 703 3866 
L 703 4441 
L 1819 4666 
L 2450 4666 
L 2450 531 
L 3481 531 
L 3481 0 
L 794 0 
L 794 531 
z
" transform="scale(0.015625)"/>
       </defs>
       <use xlink:href="#DejaVuSans-31"/>
       <use xlink:href="#DejaVuSans-30" transform="translate(63.623047 0)"/>
       <use xlink:href="#DejaVuSans-30" transform="translate(127.246094 0)"/>
       <use xlink:href="#DejaVuSans-30" transform="translate(190.869141 0)"/>
       <use xlink:href="#DejaVuSans-30" transform="translate(254.492188 0)"/>
       <use xlink:href="#DejaVuSans-30" transform="translate(318.115234 0)"/>
      </g>
     </g>
    </g>
    <g id="xtick_7">
     <g id="line2d_7">
      <g>
       <use xlink:href="#mdb6eb85aad" x="595.60625" y="240.24351" style="stroke: #000000; stroke-width: 0.8"/>
      </g>
     </g>
     <g id="text_7">
      <!-- 120000 -->
      <g transform="translate(576.51875 254.841947) scale(0.1 -0.1)">
       <use xlink:href="#DejaVuSans-31"/>
       <use xlink:href="#DejaVuSans-32" transform="translate(63.623047 0)"/>
       <use xlink:href="#DejaVuSans-30" transform="translate(127.246094 0)"/>
       <use xlink:href="#DejaVuSans-30" transform="translate(190.869141 0)"/>
       <use xlink:href="#DejaVuSans-30" transform="translate(254.492188 0)"/>
       <use xlink:href="#DejaVuSans-30" transform="translate(318.115234 0)"/>
      </g>
     </g>
    </g>
    <g id="text_8">
     <!-- cumulative training step -->
     <g transform="translate(266.732031 268.520072) scale(0.1 -0.1)">
      <defs>
       <path id="DejaVuSans-63" d="M 3122 3366 
L 3122 2828 
Q 2878 2963 2633 3030 
Q 2388 3097 2138 3097 
Q 1578 3097 1268 2742 
Q 959 2388 959 1747 
Q 959 1106 1268 751 
Q 1578 397 2138 397 
Q 2388 397 2633 464 
Q 2878 531 3122 666 
L 3122 134 
Q 2881 22 2623 -34 
Q 2366 -91 2075 -91 
Q 1284 -91 818 406 
Q 353 903 353 1747 
Q 353 2603 823 3093 
Q 1294 3584 2113 3584 
Q 2378 3584 2631 3529 
Q 2884 3475 3122 3366 
z
" transform="scale(0.015625)"/>
       <path id="DejaVuSans-75" d="M 544 1381 
L 544 3500 
L 1119 3500 
L 1119 1403 
Q 1119 906 1312 657 
Q 1506 409 1894 409 
Q 2359 409 2629 706 
Q 2900 1003 2900 1516 
L 2900 3500 
L 3475 3500 
L 3475 0 
L 2900 0 
L 2900 538 
Q 2691 219 2414 64 
Q 2138 -91 1772 -91 
Q 1169 -91 856 284 
Q 544 659 544 1381 
z
M 1991 3584 
L 1991 3584 
z
" transform="scale(0.015625)"/>
       <path id="DejaVuSans-6d" d="M 3328 2828 
Q 3544 3216 3844 3400 
Q 4144 3584 4550 3584 
Q 5097 3584 5394 3201 
Q 5691 2819 5691 2113 
L 5691 0 
L 5113 0 
L 5113 2094 
Q 5113 2597 4934 2840 
Q 4756 3084 4391 3084 
Q 3944 3084 3684 2787 
Q 3425 2491 3425 1978 
L 3425 0 
L 2847 0 
L 2847 2094 
Q 2847 2600 2669 2842 
Q 2491 3084 2119 3084 
Q 1678 3084 1418 2786 
Q 1159 2488 1159 1978 
L 1159 0 
L 581 0 
L 581 3500 
L 1159 3500 
L 1159 2956 
Q 1356 3278 1631 3431 
Q 1906 3584 2284 3584 
Q 2666 3584 2933 3390 
Q 3200 3197 3328 2828 
z
" transform="scale(0.015625)"/>
       <path id="DejaVuSans-6c" d="M 603 4863 
L 1178 4863 
L 1178 0 
L 603 0 
L 603 4863 
z
" transform="scale(0.015625)"/>
       <path id="DejaVuSans-61" d="M 2194 1759 
Q 1497 1759 1228 1600 
Q 959 1441 959 1056 
Q 959 750 1161 570 
Q 1363 391 1709 391 
Q 2188 391 2477 730 
Q 2766 1069 2766 1631 
L 2766 1759 
L 2194 1759 
z
M 3341 1997 
L 3341 0 
L 2766 0 
L 2766 531 
Q 2569 213 2275 61 
Q 1981 -91 1556 -91 
Q 1019 -91 701 211 
Q 384 513 384 1019 
Q 384 1609 779 1909 
Q 1175 2209 1959 2209 
L 2766 2209 
L 2766 2266 
Q 2766 2663 2505 2880 
Q 2244 3097 1772 3097 
Q 1472 3097 1187 3025 
Q 903 2953 641 2809 
L 641 3341 
Q 956 3463 1253 3523 
Q 1550 3584 1831 3584 
Q 2591 3584 2966 3190 
Q 3341 2797 3341 1997 
z
" transform="scale(0.015625)"/>
       <path id="DejaVuSans-74" d="M 1172 4494 
L 1172 3500 
L 2356 3500 
L 2356 3053 
L 1172 3053 
L 1172 1153 
Q 1172 725 1289 603 
Q 1406 481 1766 481 
L 2356 481 
L 2356 0 
L 1766 0 
Q 1100 0 847 248 
Q 594 497 594 1153 
L 594 3053 
L 172 3053 
L 172 3500 
L 594 3500 
L 594 4494 
L 1172 4494 
z
" transform="scale(0.015625)"/>
       <path id="DejaVuSans-69" d="M 603 3500 
L 1178 3500 
L 1178 0 
L 603 0 
L 603 3500 
z
M 603 4863 
L 1178 4863 
L 1178 4134 
L 603 4134 
L 603 4863 
z
" transform="scale(0.015625)"/>
       <path id="DejaVuSans-76" d="M 191 3500 
L 800 3500 
L 1894 563 
L 2988 3500 
L 3597 3500 
L 2284 0 
L 1503 0 
L 191 3500 
z
" transform="scale(0.015625)"/>
       <path id="DejaVuSans-65" d="M 3597 1894 
L 3597 1613 
L 953 1613 
Q 991 1019 1311 708 
Q 1631 397 2203 397 
Q 2534 397 2845 478 
Q 3156 559 3463 722 
L 3463 178 
Q 3153 47 2828 -22 
Q 2503 -91 2169 -91 
Q 1331 -91 842 396 
Q 353 884 353 1716 
Q 353 2575 817 3079 
Q 1281 3584 2069 3584 
Q 2775 3584 3186 3129 
Q 3597 2675 3597 1894 
z
M 3022 2063 
Q 3016 2534 2758 2815 
Q 2500 3097 2075 3097 
Q 1594 3097 1305 2825 
Q 1016 2553 972 2059 
L 3022 2063 
z
" transform="scale(0.015625)"/>
       <path id="DejaVuSans-20" transform="scale(0.015625)"/>
       <path id="DejaVuSans-72" d="M 2631 2963 
Q 2534 3019 2420 3045 
Q 2306 3072 2169 3072 
Q 1681 3072 1420 2755 
Q 1159 2438 1159 1844 
L 1159 0 
L 581 0 
L 581 3500 
L 1159 3500 
L 1159 2956 
Q 1341 3275 1631 3429 
Q 1922 3584 2338 3584 
Q 2397 3584 2469 3576 
Q 2541 3569 2628 3553 
L 2631 2963 
z
" transform="scale(0.015625)"/>
       <path id="DejaVuSans-6e" d="M 3513 2113 
L 3513 0 
L 2938 0 
L 2938 2094 
Q 2938 2591 2744 2837 
Q 2550 3084 2163 3084 
Q 1697 3084 1428 2787 
Q 1159 2491 1159 1978 
L 1159 0 
L 581 0 
L 581 3500 
L 1159 3500 
L 1159 2956 
Q 1366 3272 1645 3428 
Q 1925 3584 2291 3584 
Q 2894 3584 3203 3211 
Q 3513 2838 3513 2113 
z
" transform="scale(0.015625)"/>
       <path id="DejaVuSans-67" d="M 2906 1791 
Q 2906 2416 2648 2759 
Q 2391 3103 1925 3103 
Q 1463 3103 1205 2759 
Q 947 2416 947 1791 
Q 947 1169 1205 825 
Q 1463 481 1925 481 
Q 2391 481 2648 825 
Q 2906 1169 2906 1791 
z
M 3481 434 
Q 3481 -459 3084 -895 
Q 2688 -1331 1869 -1331 
Q 1566 -1331 1297 -1286 
Q 1028 -1241 775 -1147 
L 775 -588 
Q 1028 -725 1275 -790 
Q 1522 -856 1778 -856 
Q 2344 -856 2625 -561 
Q 2906 -266 2906 331 
L 2906 616 
Q 2728 306 2450 153 
Q 2172 0 1784 0 
Q 1141 0 747 490 
Q 353 981 353 1791 
Q 353 2603 747 3093 
Q 1141 3584 1784 3584 
Q 2172 3584 2450 3431 
Q 2728 3278 2906 2969 
L 2906 3500 
L 3481 3500 
L 3481 434 
z
" transform="scale(0.015625)"/>
       <path id="DejaVuSans-73" d="M 2834 3397 
L 2834 2853 
Q 2591 2978 2328 3040 
Q 2066 3103 1784 3103 
Q 1356 3103 1142 2972 
Q 928 2841 928 2578 
Q 928 2378 1081 2264 
Q 1234 2150 1697 2047 
L 1894 2003 
Q 2506 1872 2764 1633 
Q 3022 1394 3022 966 
Q 3022 478 2636 193 
Q 2250 -91 1575 -91 
Q 1294 -91 989 -36 
Q 684 19 347 128 
L 347 722 
Q 666 556 975 473 
Q 1284 391 1588 391 
Q 1994 391 2212 530 
Q 2431 669 2431 922 
Q 2431 1156 2273 1281 
Q 2116 1406 1581 1522 
L 1381 1569 
Q 847 1681 609 1914 
Q 372 2147 372 2553 
Q 372 3047 722 3315 
Q 1072 3584 1716 3584 
Q 2034 3584 2315 3537 
Q 2597 3491 2834 3397 
z
" transform="scale(0.015625)"/>
       <path id="DejaVuSans-70" d="M 1159 525 
L 1159 -1331 
L 581 -1331 
L 581 3500 
L 1159 3500 
L 1159 2969 
Q 1341 3281 1617 3432 
Q 1894 3584 2278 3584 
Q 2916 3584 3314 3078 
Q 3713 2572 3713 1747 
Q 3713 922 3314 415 
Q 2916 -91 2278 -91 
Q 1894 -91 1617 61 
Q 1341 213 1159 525 
z
M 3116 1747 
Q 3116 2381 2855 2742 
Q 2594 3103 2138 3103 
Q 1681 3103 1420 2742 
Q 1159 2381 1159 1747 
Q 1159 1113 1420 752 
Q 1681 391 2138 391 
Q 2594 391 2855 752 
Q 3116 1113 3116 1747 
z
" transform="scale(0.015625)"/>
      </defs>
      <use xlink:href="#DejaVuSans-63"/>
      <use xlink:href="#DejaVuSans-75" transform="translate(54.980469 0)"/>
      <use xlink:href="#DejaVuSans-6d" transform="translate(118.359375 0)"/>
      <use xlink:href="#DejaVuSans-75" transform="translate(215.771484 0)"/>
      <use xlink:href="#DejaVuSans-6c" transform="translate(279.150391 0)"/>
      <use xlink:href="#DejaVuSans-61" transform="translate(306.933594 0)"/>
      <use xlink:href="#DejaVuSans-74" transform="translate(368.212891 0)"/>
      <use xlink:href="#DejaVuSans-69" transform="translate(407.421875 0)"/>
      <use xlink:href="#DejaVuSans-76" transform="translate(435.205078 0)"/>
      <use xlink:href="#DejaVuSans-65" transform="translate(494.384766 0)"/>
      <use xlink:href="#DejaVuSans-20" transform="translate(555.908203 0)"/>
      <use xlink:href="#DejaVuSans-74" transform="translate(587.695312 0)"/>
      <use xlink:href="#DejaVuSans-72" transform="translate(626.904297 0)"/>
      <use xlink:href="#DejaVuSans-61" transform="translate(668.017578 0)"/>
      <use xlink:href="#DejaVuSans-69" transform="translate(729.296875 0)"/>
      <use xlink:href="#DejaVuSans-6e" transform="translate(757.080078 0)"/>
      <use xlink:href="#DejaVuSans-69" transform="translate(820.458984 0)"/>
      <use xlink:href="#DejaVuSans-6e" transform="translate(848.242188 0)"/>
      <use xlink:href="#DejaVuSans-67" transform="translate(911.621094 0)"/>
      <use xlink:href="#DejaVuSans-20" transform="translate(975.097656 0)"/>
      <use xlink:href="#DejaVuSans-73" transform="translate(1006.884766 0)"/>
      <use xlink:href="#DejaVuSans-74" transform="translate(1058.984375 0)"/>
      <use xlink:href="#DejaVuSans-65" transform="translate(1098.193359 0)"/>
      <use xlink:href="#DejaVuSans-70" transform="translate(1159.716797 0)"/>
     </g>
    </g>
   </g>
   <g id="matplotlib.axis_2">
    <g id="ytick_1">
     <g id="line2d_8">
      <path d="M 39.58149 227.087932 
L 616.19976 227.087932 
" clip-path="url(#p5673d90c2e)" style="fill: none; stroke: #e6e6e6; stroke-width: 0.8; stroke-linecap: square"/>
     </g>
     <g id="line2d_9">
      <defs>
       <path id="md112a96fb5" d="M 0 0 
L -3.5 0 
" style="stroke: #000000; stroke-width: 0.8"/>
      </defs>
      <g>
       <use xlink:href="#md112a96fb5" x="39.58149" y="227.087932" style="stroke: #000000; stroke-width: 0.8"/>
      </g>
     </g>
     <g id="text_9">
      <!-- 0.2 -->
      <g transform="translate(16.678365 230.88715) scale(0.1 -0.1)">
       <defs>
        <path id="DejaVuSans-2e" d="M 684 794 
L 1344 794 
L 1344 0 
L 684 0 
L 684 794 
z
" transform="scale(0.015625)"/>
       </defs>
       <use xlink:href="#DejaVuSans-30"/>
       <use xlink:href="#DejaVuSans-2e" transform="translate(63.623047 0)"/>
       <use xlink:href="#DejaVuSans-32" transform="translate(95.410156 0)"/>
      </g>
     </g>
    </g>
    <g id="ytick_2">
     <g id="line2d_10">
      <path d="M 39.58149 200.776775 
L 616.19976 200.776775 
" clip-path="url(#p5673d90c2e)" style="fill: none; stroke: #e6e6e6; stroke-width: 0.8; stroke-linecap: square"/>
     </g>
     <g id="line2d_11">
      <g>
       <use xlink:href="#md112a96fb5" x="39.58149" y="200.776775" style="stroke: #000000; stroke-width: 0.8"/>
      </g>
     </g>
     <g id="text_10">
      <!-- 0.3 -->
      <g transform="translate(16.678365 204.575994) scale(0.1 -0.1)">
       <defs>
        <path id="DejaVuSans-33" d="M 2597 2516 
Q 3050 2419 3304 2112 
Q 3559 1806 3559 1356 
Q 3559 666 3084 287 
Q 2609 -91 1734 -91 
Q 1441 -91 1130 -33 
Q 819 25 488 141 
L 488 750 
Q 750 597 1062 519 
Q 1375 441 1716 441 
Q 2309 441 2620 675 
Q 2931 909 2931 1356 
Q 2931 1769 2642 2001 
Q 2353 2234 1838 2234 
L 1294 2234 
L 1294 2753 
L 1863 2753 
Q 2328 2753 2575 2939 
Q 2822 3125 2822 3475 
Q 2822 3834 2567 4026 
Q 2313 4219 1838 4219 
Q 1578 4219 1281 4162 
Q 984 4106 628 3988 
L 628 4550 
Q 988 4650 1302 4700 
Q 1616 4750 1894 4750 
Q 2613 4750 3031 4423 
Q 3450 4097 3450 3541 
Q 3450 3153 3228 2886 
Q 3006 2619 2597 2516 
z
" transform="scale(0.015625)"/>
       </defs>
       <use xlink:href="#DejaVuSans-30"/>
       <use xlink:href="#DejaVuSans-2e" transform="translate(63.623047 0)"/>
       <use xlink:href="#DejaVuSans-33" transform="translate(95.410156 0)"/>
      </g>
     </g>
    </g>
    <g id="ytick_3">
     <g id="line2d_12">
      <path d="M 39.58149 174.465618 
L 616.19976 174.465618 
" clip-path="url(#p5673d90c2e)" style="fill: none; stroke: #e6e6e6; stroke-width: 0.8; stroke-linecap: square"/>
     </g>
     <g id="line2d_13">
      <g>
       <use xlink:href="#md112a96fb5" x="39.58149" y="174.465618" style="stroke: #000000; stroke-width: 0.8"/>
      </g>
     </g>
     <g id="text_11">
      <!-- 0.4 -->
      <g transform="translate(16.678365 178.264837) scale(0.1 -0.1)">
       <use xlink:href="#DejaVuSans-30"/>
       <use xlink:href="#DejaVuSans-2e" transform="translate(63.623047 0)"/>
       <use xlink:href="#DejaVuSans-34" transform="translate(95.410156 0)"/>
      </g>
     </g>
    </g>
    <g id="ytick_4">
     <g id="line2d_14">
      <path d="M 39.58149 148.154461 
L 616.19976 148.154461 
" clip-path="url(#p5673d90c2e)" style="fill: none; stroke: #e6e6e6; stroke-width: 0.8; stroke-linecap: square"/>
     </g>
     <g id="line2d_15">
      <g>
       <use xlink:href="#md112a96fb5" x="39.58149" y="148.154461" style="stroke: #000000; stroke-width: 0.8"/>
      </g>
     </g>
     <g id="text_12">
      <!-- 0.5 -->
      <g transform="translate(16.678365 151.95368) scale(0.1 -0.1)">
       <defs>
        <path id="DejaVuSans-35" d="M 691 4666 
L 3169 4666 
L 3169 4134 
L 1269 4134 
L 1269 2991 
Q 1406 3038 1543 3061 
Q 1681 3084 1819 3084 
Q 2600 3084 3056 2656 
Q 3513 2228 3513 1497 
Q 3513 744 3044 326 
Q 2575 -91 1722 -91 
Q 1428 -91 1123 -41 
Q 819 9 494 109 
L 494 744 
Q 775 591 1075 516 
Q 1375 441 1709 441 
Q 2250 441 2565 725 
Q 2881 1009 2881 1497 
Q 2881 1984 2565 2268 
Q 2250 2553 1709 2553 
Q 1456 2553 1204 2497 
Q 953 2441 691 2322 
L 691 4666 
z
" transform="scale(0.015625)"/>
       </defs>
       <use xlink:href="#DejaVuSans-30"/>
       <use xlink:href="#DejaVuSans-2e" transform="translate(63.623047 0)"/>
       <use xlink:href="#DejaVuSans-35" transform="translate(95.410156 0)"/>
      </g>
     </g>
    </g>
    <g id="ytick_5">
     <g id="line2d_16">
      <path d="M 39.58149 121.843305 
L 616.19976 121.843305 
" clip-path="url(#p5673d90c2e)" style="fill: none; stroke: #e6e6e6; stroke-width: 0.8; stroke-linecap: square"/>
     </g>
     <g id="line2d_17">
      <g>
       <use xlink:href="#md112a96fb5" x="39.58149" y="121.843305" style="stroke: #000000; stroke-width: 0.8"/>
      </g>
     </g>
     <g id="text_13">
      <!-- 0.6 -->
      <g transform="translate(16.678365 125.642523) scale(0.1 -0.1)">
       <use xlink:href="#DejaVuSans-30"/>
       <use xlink:href="#DejaVuSans-2e" transform="translate(63.623047 0)"/>
       <use xlink:href="#DejaVuSans-36" transform="translate(95.410156 0)"/>
      </g>
     </g>
    </g>
    <g id="ytick_6">
     <g id="line2d_18">
      <path d="M 39.58149 95.532148 
L 616.19976 95.532148 
" clip-path="url(#p5673d90c2e)" style="fill: none; stroke: #e6e6e6; stroke-width: 0.8; stroke-linecap: square"/>
     </g>
     <g id="line2d_19">
      <g>
       <use xlink:href="#md112a96fb5" x="39.58149" y="95.532148" style="stroke: #000000; stroke-width: 0.8"/>
      </g>
     </g>
     <g id="text_14">
      <!-- 0.7 -->
      <g transform="translate(16.678365 99.331367) scale(0.1 -0.1)">
       <defs>
        <path id="DejaVuSans-37" d="M 525 4666 
L 3525 4666 
L 3525 4397 
L 1831 0 
L 1172 0 
L 2766 4134 
L 525 4134 
L 525 4666 
z
" transform="scale(0.015625)"/>
       </defs>
       <use xlink:href="#DejaVuSans-30"/>
       <use xlink:href="#DejaVuSans-2e" transform="translate(63.623047 0)"/>
       <use xlink:href="#DejaVuSans-37" transform="translate(95.410156 0)"/>
      </g>
     </g>
    </g>
    <g id="ytick_7">
     <g id="line2d_20">
      <path d="M 39.58149 69.220991 
L 616.19976 69.220991 
" clip-path="url(#p5673d90c2e)" style="fill: none; stroke: #e6e6e6; stroke-width: 0.8; stroke-linecap: square"/>
     </g>
     <g id="line2d_21">
      <g>
       <use xlink:href="#md112a96fb5" x="39.58149" y="69.220991" style="stroke: #000000; stroke-width: 0.8"/>
      </g>
     </g>
     <g id="text_15">
      <!-- 0.8 -->
      <g transform="translate(16.678365 73.02021) scale(0.1 -0.1)">
       <use xlink:href="#DejaVuSans-30"/>
       <use xlink:href="#DejaVuSans-2e" transform="translate(63.623047 0)"/>
       <use xlink:href="#DejaVuSans-38" transform="translate(95.410156 0)"/>
      </g>
     </g>
    </g>
    <g id="ytick_8">
     <g id="line2d_22">
      <path d="M 39.58149 42.909834 
L 616.19976 42.909834 
" clip-path="url(#p5673d90c2e)" style="fill: none; stroke: #e6e6e6; stroke-width: 0.8; stroke-linecap: square"/>
     </g>
     <g id="line2d_23">
      <g>
       <use xlink:href="#md112a96fb5" x="39.58149" y="42.909834" style="stroke: #000000; stroke-width: 0.8"/>
      </g>
     </g>
     <g id="text_16">
      <!-- 0.9 -->
      <g transform="translate(16.678365 46.709053) scale(0.1 -0.1)">
       <defs>
        <path id="DejaVuSans-39" d="M 703 97 
L 703 672 
Q 941 559 1184 500 
Q 1428 441 1663 441 
Q 2288 441 2617 861 
Q 2947 1281 2994 2138 
Q 2813 1869 2534 1725 
Q 2256 1581 1919 1581 
Q 1219 1581 811 2004 
Q 403 2428 403 3163 
Q 403 3881 828 4315 
Q 1253 4750 1959 4750 
Q 2769 4750 3195 4129 
Q 3622 3509 3622 2328 
Q 3622 1225 3098 567 
Q 2575 -91 1691 -91 
Q 1453 -91 1209 -44 
Q 966 3 703 97 
z
M 1959 2075 
Q 2384 2075 2632 2365 
Q 2881 2656 2881 3163 
Q 2881 3666 2632 3958 
Q 2384 4250 1959 4250 
Q 1534 4250 1286 3958 
Q 1038 3666 1038 3163 
Q 1038 2656 1286 2365 
Q 1534 2075 1959 2075 
z
" transform="scale(0.015625)"/>
       </defs>
       <use xlink:href="#DejaVuSans-30"/>
       <use xlink:href="#DejaVuSans-2e" transform="translate(63.623047 0)"/>
       <use xlink:href="#DejaVuSans-39" transform="translate(95.410156 0)"/>
      </g>
     </g>
    </g>
    <g id="ytick_9">
     <g id="line2d_24">
      <path d="M 39.58149 16.598678 
L 616.19976 16.598678 
" clip-path="url(#p5673d90c2e)" style="fill: none; stroke: #e6e6e6; stroke-width: 0.8; stroke-linecap: square"/>
     </g>
     <g id="line2d_25">
      <g>
       <use xlink:href="#md112a96fb5" x="39.58149" y="16.598678" style="stroke: #000000; stroke-width: 0.8"/>
      </g>
     </g>
     <g id="text_17">
      <!-- 1.0 -->
      <g transform="translate(16.678365 20.397896) scale(0.1 -0.1)">
       <use xlink:href="#DejaVuSans-31"/>
       <use xlink:href="#DejaVuSans-2e" transform="translate(63.623047 0)"/>
       <use xlink:href="#DejaVuSans-30" transform="translate(95.410156 0)"/>
      </g>
     </g>
    </g>
    <g id="text_18">
     <!-- held-out streaming WER (frozen decoder) -->
     <g transform="translate(10.598677 232.399219) rotate(-90) scale(0.1 -0.1)">
      <defs>
       <path id="DejaVuSans-68" d="M 3513 2113 
L 3513 0 
L 2938 0 
L 2938 2094 
Q 2938 2591 2744 2837 
Q 2550 3084 2163 3084 
Q 1697 3084 1428 2787 
Q 1159 2491 1159 1978 
L 1159 0 
L 581 0 
L 581 4863 
L 1159 4863 
L 1159 2956 
Q 1366 3272 1645 3428 
Q 1925 3584 2291 3584 
Q 2894 3584 3203 3211 
Q 3513 2838 3513 2113 
z
" transform="scale(0.015625)"/>
       <path id="DejaVuSans-64" d="M 2906 2969 
L 2906 4863 
L 3481 4863 
L 3481 0 
L 2906 0 
L 2906 525 
Q 2725 213 2448 61 
Q 2172 -91 1784 -91 
Q 1150 -91 751 415 
Q 353 922 353 1747 
Q 353 2572 751 3078 
Q 1150 3584 1784 3584 
Q 2172 3584 2448 3432 
Q 2725 3281 2906 2969 
z
M 947 1747 
Q 947 1113 1208 752 
Q 1469 391 1925 391 
Q 2381 391 2643 752 
Q 2906 1113 2906 1747 
Q 2906 2381 2643 2742 
Q 2381 3103 1925 3103 
Q 1469 3103 1208 2742 
Q 947 2381 947 1747 
z
" transform="scale(0.015625)"/>
       <path id="DejaVuSans-2d" d="M 313 2009 
L 1997 2009 
L 1997 1497 
L 313 1497 
L 313 2009 
z
" transform="scale(0.015625)"/>
       <path id="DejaVuSans-6f" d="M 1959 3097 
Q 1497 3097 1228 2736 
Q 959 2375 959 1747 
Q 959 1119 1226 758 
Q 1494 397 1959 397 
Q 2419 397 2687 759 
Q 2956 1122 2956 1747 
Q 2956 2369 2687 2733 
Q 2419 3097 1959 3097 
z
M 1959 3584 
Q 2709 3584 3137 3096 
Q 3566 2609 3566 1747 
Q 3566 888 3137 398 
Q 2709 -91 1959 -91 
Q 1206 -91 779 398 
Q 353 888 353 1747 
Q 353 2609 779 3096 
Q 1206 3584 1959 3584 
z
" transform="scale(0.015625)"/>
       <path id="DejaVuSans-57" d="M 213 4666 
L 850 4666 
L 1831 722 
L 2809 4666 
L 3519 4666 
L 4500 722 
L 5478 4666 
L 6119 4666 
L 4947 0 
L 4153 0 
L 3169 4050 
L 2175 0 
L 1381 0 
L 213 4666 
z
" transform="scale(0.015625)"/>
       <path id="DejaVuSans-45" d="M 628 4666 
L 3578 4666 
L 3578 4134 
L 1259 4134 
L 1259 2753 
L 3481 2753 
L 3481 2222 
L 1259 2222 
L 1259 531 
L 3634 531 
L 3634 0 
L 628 0 
L 628 4666 
z
" transform="scale(0.015625)"/>
       <path id="DejaVuSans-52" d="M 2841 2188 
Q 3044 2119 3236 1894 
Q 3428 1669 3622 1275 
L 4263 0 
L 3584 0 
L 2988 1197 
Q 2756 1666 2539 1819 
Q 2322 1972 1947 1972 
L 1259 1972 
L 1259 0 
L 628 0 
L 628 4666 
L 2053 4666 
Q 2853 4666 3247 4331 
Q 3641 3997 3641 3322 
Q 3641 2881 3436 2590 
Q 3231 2300 2841 2188 
z
M 1259 4147 
L 1259 2491 
L 2053 2491 
Q 2509 2491 2742 2702 
Q 2975 2913 2975 3322 
Q 2975 3731 2742 3939 
Q 2509 4147 2053 4147 
L 1259 4147 
z
" transform="scale(0.015625)"/>
       <path id="DejaVuSans-28" d="M 1984 4856 
Q 1566 4138 1362 3434 
Q 1159 2731 1159 2009 
Q 1159 1288 1364 580 
Q 1569 -128 1984 -844 
L 1484 -844 
Q 1016 -109 783 600 
Q 550 1309 550 2009 
Q 550 2706 781 3412 
Q 1013 4119 1484 4856 
L 1984 4856 
z
" transform="scale(0.015625)"/>
       <path id="DejaVuSans-66" d="M 2375 4863 
L 2375 4384 
L 1825 4384 
Q 1516 4384 1395 4259 
Q 1275 4134 1275 3809 
L 1275 3500 
L 2222 3500 
L 2222 3053 
L 1275 3053 
L 1275 0 
L 697 0 
L 697 3053 
L 147 3053 
L 147 3500 
L 697 3500 
L 697 3744 
Q 697 4328 969 4595 
Q 1241 4863 1831 4863 
L 2375 4863 
z
" transform="scale(0.015625)"/>
       <path id="DejaVuSans-7a" d="M 353 3500 
L 3084 3500 
L 3084 2975 
L 922 459 
L 3084 459 
L 3084 0 
L 275 0 
L 275 525 
L 2438 3041 
L 353 3041 
L 353 3500 
z
" transform="scale(0.015625)"/>
       <path id="DejaVuSans-29" d="M 513 4856 
L 1013 4856 
Q 1481 4119 1714 3412 
Q 1947 2706 1947 2009 
Q 1947 1309 1714 600 
Q 1481 -109 1013 -844 
L 513 -844 
Q 928 -128 1133 580 
Q 1338 1288 1338 2009 
Q 1338 2731 1133 3434 
Q 928 4138 513 4856 
z
" transform="scale(0.015625)"/>
      </defs>
      <use xlink:href="#DejaVuSans-68"/>
      <use xlink:href="#DejaVuSans-65" transform="translate(63.378906 0)"/>
      <use xlink:href="#DejaVuSans-6c" transform="translate(124.902344 0)"/>
      <use xlink:href="#DejaVuSans-64" transform="translate(152.685547 0)"/>
      <use xlink:href="#DejaVuSans-2d" transform="translate(216.162109 0)"/>
      <use xlink:href="#DejaVuSans-6f" transform="translate(254.121094 0)"/>
      <use xlink:href="#DejaVuSans-75" transform="translate(315.302734 0)"/>
      <use xlink:href="#DejaVuSans-74" transform="translate(378.681641 0)"/>
      <use xlink:href="#DejaVuSans-20" transform="translate(417.890625 0)"/>
      <use xlink:href="#DejaVuSans-73" transform="translate(449.677734 0)"/>
      <use xlink:href="#DejaVuSans-74" transform="translate(501.777344 0)"/>
      <use xlink:href="#DejaVuSans-72" transform="translate(540.986328 0)"/>
      <use xlink:href="#DejaVuSans-65" transform="translate(579.849609 0)"/>
      <use xlink:href="#DejaVuSans-61" transform="translate(641.373047 0)"/>
      <use xlink:href="#DejaVuSans-6d" transform="translate(702.652344 0)"/>
      <use xlink:href="#DejaVuSans-69" transform="translate(800.064453 0)"/>
      <use xlink:href="#DejaVuSans-6e" transform="translate(827.847656 0)"/>
      <use xlink:href="#DejaVuSans-67" transform="translate(891.226562 0)"/>
      <use xlink:href="#DejaVuSans-20" transform="translate(954.703125 0)"/>
      <use xlink:href="#DejaVuSans-57" transform="translate(986.490234 0)"/>
      <use xlink:href="#DejaVuSans-45" transform="translate(1085.367188 0)"/>
      <use xlink:href="#DejaVuSans-52" transform="translate(1148.550781 0)"/>
      <use xlink:href="#DejaVuSans-20" transform="translate(1218.033203 0)"/>
      <use xlink:href="#DejaVuSans-28" transform="translate(1249.820312 0)"/>
      <use xlink:href="#DejaVuSans-66" transform="translate(1288.833984 0)"/>
      <use xlink:href="#DejaVuSans-72" transform="translate(1324.039062 0)"/>
      <use xlink:href="#DejaVuSans-6f" transform="translate(1362.902344 0)"/>
      <use xlink:href="#DejaVuSans-7a" transform="translate(1424.083984 0)"/>
      <use xlink:href="#DejaVuSans-65" transform="translate(1476.574219 0)"/>
      <use xlink:href="#DejaVuSans-6e" transform="translate(1538.097656 0)"/>
      <use xlink:href="#DejaVuSans-20" transform="translate(1601.476562 0)"/>
      <use xlink:href="#DejaVuSans-64" transform="translate(1633.263672 0)"/>
      <use xlink:href="#DejaVuSans-65" transform="translate(1696.740234 0)"/>
      <use xlink:href="#DejaVuSans-63" transform="translate(1758.263672 0)"/>
      <use xlink:href="#DejaVuSans-6f" transform="translate(1813.244141 0)"/>
      <use xlink:href="#DejaVuSans-64" transform="translate(1874.425781 0)"/>
      <use xlink:href="#DejaVuSans-65" transform="translate(1937.902344 0)"/>
      <use xlink:href="#DejaVuSans-72" transform="translate(1999.425781 0)"/>
      <use xlink:href="#DejaVuSans-29" transform="translate(2040.539062 0)"/>
     </g>
    </g>
   </g>
   <g id="line2d_26">
    <path d="M 60.175 240.24351 
L 60.175 16.598678 
" clip-path="url(#p5673d90c2e)" style="fill: none; stroke-dasharray: 3.6,2.7; stroke-dashoffset: 0; stroke: #d0d0d0; stroke-width: 0.9"/>
   </g>
   <g id="line2d_27">
    <path d="M 334.755128 240.24351 
L 334.755128 16.598678 
" clip-path="url(#p5673d90c2e)" style="fill: none; stroke-dasharray: 3.6,2.7; stroke-dashoffset: 0; stroke: #d0d0d0; stroke-width: 0.9"/>
   </g>
   <g id="line2d_28">
    <path d="M 46.445993 80.950214 
L 48.734161 100.209529 
L 51.022329 139.045631 
L 53.310496 156.41085 
L 55.598664 158.784697 
L 57.886832 168.55035 
L 60.175 167.755968 
L 60.175 168.55035 
L 83.056677 194.026033 
L 105.938354 188.753707 
L 128.820032 202.131318 
L 151.701709 199.58934 
L 174.583387 205.21678 
L 197.465064 204.755631 
L 220.346741 211.445896 
L 243.228419 201.892606 
L 266.110096 210.953962 
L 288.991773 211.474445 
L 311.873451 210.060476 
L 334.755128 214.149716 
" clip-path="url(#p5673d90c2e)" style="fill: none; stroke: #0a66a3; stroke-width: 1.6; stroke-linecap: square"/>
    <defs>
     <path id="mefe39bd428" d="M 0 1.5 
C 0.397805 1.5 0.77937 1.341951 1.06066 1.06066 
C 1.341951 0.77937 1.5 0.397805 1.5 0 
C 1.5 -0.397805 1.341951 -0.77937 1.06066 -1.06066 
C 0.77937 -1.341951 0.397805 -1.5 0 -1.5 
C -0.397805 -1.5 -0.77937 -1.341951 -1.06066 -1.06066 
C -1.341951 -0.77937 -1.5 -0.397805 -1.5 0 
C -1.5 0.397805 -1.341951 0.77937 -1.06066 1.06066 
C -0.77937 1.341951 -0.397805 1.5 0 1.5 
z
" style="stroke: #0a66a3"/>
    </defs>
    <g clip-path="url(#p5673d90c2e)">
     <use xlink:href="#mefe39bd428" x="46.445993" y="80.950214" style="fill: #0a66a3; stroke: #0a66a3"/>
     <use xlink:href="#mefe39bd428" x="48.734161" y="100.209529" style="fill: #0a66a3; stroke: #0a66a3"/>
     <use xlink:href="#mefe39bd428" x="51.022329" y="139.045631" style="fill: #0a66a3; stroke: #0a66a3"/>
     <use xlink:href="#mefe39bd428" x="53.310496" y="156.41085" style="fill: #0a66a3; stroke: #0a66a3"/>
     <use xlink:href="#mefe39bd428" x="55.598664" y="158.784697" style="fill: #0a66a3; stroke: #0a66a3"/>
     <use xlink:href="#mefe39bd428" x="57.886832" y="168.55035" style="fill: #0a66a3; stroke: #0a66a3"/>
     <use xlink:href="#mefe39bd428" x="60.175" y="167.755968" style="fill: #0a66a3; stroke: #0a66a3"/>
     <use xlink:href="#mefe39bd428" x="60.175" y="168.55035" style="fill: #0a66a3; stroke: #0a66a3"/>
     <use xlink:href="#mefe39bd428" x="83.056677" y="194.026033" style="fill: #0a66a3; stroke: #0a66a3"/>
     <use xlink:href="#mefe39bd428" x="105.938354" y="188.753707" style="fill: #0a66a3; stroke: #0a66a3"/>
     <use xlink:href="#mefe39bd428" x="128.820032" y="202.131318" style="fill: #0a66a3; stroke: #0a66a3"/>
     <use xlink:href="#mefe39bd428" x="151.701709" y="199.58934" style="fill: #0a66a3; stroke: #0a66a3"/>
     <use xlink:href="#mefe39bd428" x="174.583387" y="205.21678" style="fill: #0a66a3; stroke: #0a66a3"/>
     <use xlink:href="#mefe39bd428" x="197.465064" y="204.755631" style="fill: #0a66a3; stroke: #0a66a3"/>
     <use xlink:href="#mefe39bd428" x="220.346741" y="211.445896" style="fill: #0a66a3; stroke: #0a66a3"/>
     <use xlink:href="#mefe39bd428" x="243.228419" y="201.892606" style="fill: #0a66a3; stroke: #0a66a3"/>
     <use xlink:href="#mefe39bd428" x="266.110096" y="210.953962" style="fill: #0a66a3; stroke: #0a66a3"/>
     <use xlink:href="#mefe39bd428" x="288.991773" y="211.474445" style="fill: #0a66a3; stroke: #0a66a3"/>
     <use xlink:href="#mefe39bd428" x="311.873451" y="210.060476" style="fill: #0a66a3; stroke: #0a66a3"/>
     <use xlink:href="#mefe39bd428" x="334.755128" y="214.149716" style="fill: #0a66a3; stroke: #0a66a3"/>
    </g>
   </g>
   <g id="line2d_29">
    <path d="M 334.755128 214.142842 
L 426.281838 213.563997 
L 426.281838 213.559729 
L 449.163515 217.369009 
L 472.045192 218.149451 
L 494.92687 218.70536 
L 517.808547 221.428219 
L 540.690225 221.808061 
L 563.571902 218.032314 
L 586.453579 223.764532 
L 609.335257 223.996689 
" clip-path="url(#p5673d90c2e)" style="fill: none; stroke: #0a66a3; stroke-width: 1.6; stroke-linecap: square"/>
    <g clip-path="url(#p5673d90c2e)">
     <use xlink:href="#mefe39bd428" x="334.755128" y="214.142842" style="fill: #0a66a3; stroke: #0a66a3"/>
     <use xlink:href="#mefe39bd428" x="426.281838" y="213.563997" style="fill: #0a66a3; stroke: #0a66a3"/>
     <use xlink:href="#mefe39bd428" x="426.281838" y="213.559729" style="fill: #0a66a3; stroke: #0a66a3"/>
     <use xlink:href="#mefe39bd428" x="449.163515" y="217.369009" style="fill: #0a66a3; stroke: #0a66a3"/>
     <use xlink:href="#mefe39bd428" x="472.045192" y="218.149451" style="fill: #0a66a3; stroke: #0a66a3"/>
     <use xlink:href="#mefe39bd428" x="494.92687" y="218.70536" style="fill: #0a66a3; stroke: #0a66a3"/>
     <use xlink:href="#mefe39bd428" x="517.808547" y="221.428219" style="fill: #0a66a3; stroke: #0a66a3"/>
     <use xlink:href="#mefe39bd428" x="540.690225" y="221.808061" style="fill: #0a66a3; stroke: #0a66a3"/>
     <use xlink:href="#mefe39bd428" x="563.571902" y="218.032314" style="fill: #0a66a3; stroke: #0a66a3"/>
     <use xlink:href="#mefe39bd428" x="586.453579" y="223.764532" style="fill: #0a66a3; stroke: #0a66a3"/>
     <use xlink:href="#mefe39bd428" x="609.335257" y="223.996689" style="fill: #0a66a3; stroke: #0a66a3"/>
    </g>
   </g>
   <g id="line2d_30">
    <path d="M 334.755128 209.959369 
L 426.281838 216.35298 
L 426.281838 216.343242 
L 449.163515 215.921131 
L 472.045192 219.095139 
L 494.92687 218.869804 
L 517.808547 221.986786 
L 540.690225 220.21678 
L 563.571902 223.029344 
L 586.453579 224.371465 
L 609.335257 226.267416 
" clip-path="url(#p5673d90c2e)" style="fill: none; stroke: #c2542e; stroke-width: 1.6; stroke-linecap: square"/>
    <defs>
     <path id="mdeab1b98d5" d="M -1.5 1.5 
L 1.5 1.5 
L 1.5 -1.5 
L -1.5 -1.5 
z
" style="stroke: #c2542e; stroke-linejoin: miter"/>
    </defs>
    <g clip-path="url(#p5673d90c2e)">
     <use xlink:href="#mdeab1b98d5" x="334.755128" y="209.959369" style="fill: #c2542e; stroke: #c2542e; stroke-linejoin: miter"/>
     <use xlink:href="#mdeab1b98d5" x="426.281838" y="216.35298" style="fill: #c2542e; stroke: #c2542e; stroke-linejoin: miter"/>
     <use xlink:href="#mdeab1b98d5" x="426.281838" y="216.343242" style="fill: #c2542e; stroke: #c2542e; stroke-linejoin: miter"/>
     <use xlink:href="#mdeab1b98d5" x="449.163515" y="215.921131" style="fill: #c2542e; stroke: #c2542e; stroke-linejoin: miter"/>
     <use xlink:href="#mdeab1b98d5" x="472.045192" y="219.095139" style="fill: #c2542e; stroke: #c2542e; stroke-linejoin: miter"/>
     <use xlink:href="#mdeab1b98d5" x="494.92687" y="218.869804" style="fill: #c2542e; stroke: #c2542e; stroke-linejoin: miter"/>
     <use xlink:href="#mdeab1b98d5" x="517.808547" y="221.986786" style="fill: #c2542e; stroke: #c2542e; stroke-linejoin: miter"/>
     <use xlink:href="#mdeab1b98d5" x="540.690225" y="220.21678" style="fill: #c2542e; stroke: #c2542e; stroke-linejoin: miter"/>
     <use xlink:href="#mdeab1b98d5" x="563.571902" y="223.029344" style="fill: #c2542e; stroke: #c2542e; stroke-linejoin: miter"/>
     <use xlink:href="#mdeab1b98d5" x="586.453579" y="224.371465" style="fill: #c2542e; stroke: #c2542e; stroke-linejoin: miter"/>
     <use xlink:href="#mdeab1b98d5" x="609.335257" y="226.267416" style="fill: #c2542e; stroke: #c2542e; stroke-linejoin: miter"/>
    </g>
   </g>
   <g id="line2d_31">
    <path d="M 334.755128 47.435353 
L 426.281838 182.858877 
L 426.281838 182.867577 
L 449.163515 191.980359 
L 472.045192 193.66197 
L 494.92687 194.228444 
L 517.808547 196.888595 
L 540.690225 201.376438 
L 563.571902 197.984133 
L 586.453579 200.712072 
L 609.335257 207.560711 
" clip-path="url(#p5673d90c2e)" style="fill: none; stroke: #6b9e3f; stroke-width: 1.4; stroke-linecap: square"/>
    <defs>
     <path id="mb810677c37" d="M 0 -1.5 
L -1.5 1.5 
L 1.5 1.5 
z
" style="stroke: #6b9e3f; stroke-linejoin: miter"/>
    </defs>
    <g clip-path="url(#p5673d90c2e)">
     <use xlink:href="#mb810677c37" x="334.755128" y="47.435353" style="fill: #6b9e3f; stroke: #6b9e3f; stroke-linejoin: miter"/>
     <use xlink:href="#mb810677c37" x="426.281838" y="182.858877" style="fill: #6b9e3f; stroke: #6b9e3f; stroke-linejoin: miter"/>
     <use xlink:href="#mb810677c37" x="426.281838" y="182.867577" style="fill: #6b9e3f; stroke: #6b9e3f; stroke-linejoin: miter"/>
     <use xlink:href="#mb810677c37" x="449.163515" y="191.980359" style="fill: #6b9e3f; stroke: #6b9e3f; stroke-linejoin: miter"/>
     <use xlink:href="#mb810677c37" x="472.045192" y="193.66197" style="fill: #6b9e3f; stroke: #6b9e3f; stroke-linejoin: miter"/>
     <use xlink:href="#mb810677c37" x="494.92687" y="194.228444" style="fill: #6b9e3f; stroke: #6b9e3f; stroke-linejoin: miter"/>
     <use xlink:href="#mb810677c37" x="517.808547" y="196.888595" style="fill: #6b9e3f; stroke: #6b9e3f; stroke-linejoin: miter"/>
     <use xlink:href="#mb810677c37" x="540.690225" y="201.376438" style="fill: #6b9e3f; stroke: #6b9e3f; stroke-linejoin: miter"/>
     <use xlink:href="#mb810677c37" x="563.571902" y="197.984133" style="fill: #6b9e3f; stroke: #6b9e3f; stroke-linejoin: miter"/>
     <use xlink:href="#mb810677c37" x="586.453579" y="200.712072" style="fill: #6b9e3f; stroke: #6b9e3f; stroke-linejoin: miter"/>
     <use xlink:href="#mb810677c37" x="609.335257" y="207.560711" style="fill: #6b9e3f; stroke: #6b9e3f; stroke-linejoin: miter"/>
    </g>
   </g>
   <g id="line2d_32">
    <path d="M 39.58149 81.061012 
L 85.710952 81.061012 
" clip-path="url(#p5673d90c2e)" style="fill: none; stroke-dasharray: 1,1.65; stroke-dashoffset: 0; stroke: #9a9a9a"/>
   </g>
   <g id="patch_3">
    <path d="M 39.58149 240.24351 
L 39.58149 16.598678 
" style="fill: none; stroke: #000000; stroke-width: 0.8; stroke-linejoin: miter; stroke-linecap: square"/>
   </g>
   <g id="patch_4">
    <path d="M 39.58149 240.24351 
L 616.19976 240.24351 
" style="fill: none; stroke: #000000; stroke-width: 0.8; stroke-linejoin: miter; stroke-linecap: square"/>
   </g>
   <g id="text_19">
    <!-- phase 1 -->
    <g style="fill: #9a9a9a" transform="translate(37.423621 30.570775) scale(0.08 -0.08)">
     <use xlink:href="#DejaVuSans-70"/>
     <use xlink:href="#DejaVuSans-68" transform="translate(63.476562 0)"/>
     <use xlink:href="#DejaVuSans-61" transform="translate(126.855469 0)"/>
     <use xlink:href="#DejaVuSans-73" transform="translate(188.134766 0)"/>
     <use xlink:href="#DejaVuSans-65" transform="translate(240.234375 0)"/>
     <use xlink:href="#DejaVuSans-20" transform="translate(301.757812 0)"/>
     <use xlink:href="#DejaVuSans-31" transform="translate(333.544922 0)"/>
    </g>
    <!-- 100 h -->
    <g style="fill: #9a9a9a" transform="translate(41.869246 39.529025) scale(0.08 -0.08)">
     <use xlink:href="#DejaVuSans-31"/>
     <use xlink:href="#DejaVuSans-30" transform="translate(63.623047 0)"/>
     <use xlink:href="#DejaVuSans-30" transform="translate(127.246094 0)"/>
     <use xlink:href="#DejaVuSans-20" transform="translate(190.869141 0)"/>
     <use xlink:href="#DejaVuSans-68" transform="translate(222.65625 0)"/>
    </g>
   </g>
   <g id="text_20">
    <!-- phase 2 — LibriSpeech 960 h, 0.96 s blocks -->
    <g style="fill: #9a9a9a" transform="translate(110.180064 30.570775) scale(0.08 -0.08)">
     <defs>
      <path id="DejaVuSans-2014" d="M 313 1978 
L 6088 1978 
L 6088 1528 
L 313 1528 
L 313 1978 
z
" transform="scale(0.015625)"/>
      <path id="DejaVuSans-4c" d="M 628 4666 
L 1259 4666 
L 1259 531 
L 3531 531 
L 3531 0 
L 628 0 
L 628 4666 
z
" transform="scale(0.015625)"/>
      <path id="DejaVuSans-62" d="M 3116 1747 
Q 3116 2381 2855 2742 
Q 2594 3103 2138 3103 
Q 1681 3103 1420 2742 
Q 1159 2381 1159 1747 
Q 1159 1113 1420 752 
Q 1681 391 2138 391 
Q 2594 391 2855 752 
Q 3116 1113 3116 1747 
z
M 1159 2969 
Q 1341 3281 1617 3432 
Q 1894 3584 2278 3584 
Q 2916 3584 3314 3078 
Q 3713 2572 3713 1747 
Q 3713 922 3314 415 
Q 2916 -91 2278 -91 
Q 1894 -91 1617 61 
Q 1341 213 1159 525 
L 1159 0 
L 581 0 
L 581 4863 
L 1159 4863 
L 1159 2969 
z
" transform="scale(0.015625)"/>
      <path id="DejaVuSans-53" d="M 3425 4513 
L 3425 3897 
Q 3066 4069 2747 4153 
Q 2428 4238 2131 4238 
Q 1616 4238 1336 4038 
Q 1056 3838 1056 3469 
Q 1056 3159 1242 3001 
Q 1428 2844 1947 2747 
L 2328 2669 
Q 3034 2534 3370 2195 
Q 3706 1856 3706 1288 
Q 3706 609 3251 259 
Q 2797 -91 1919 -91 
Q 1588 -91 1214 -16 
Q 841 59 441 206 
L 441 856 
Q 825 641 1194 531 
Q 1563 422 1919 422 
Q 2459 422 2753 634 
Q 3047 847 3047 1241 
Q 3047 1584 2836 1778 
Q 2625 1972 2144 2069 
L 1759 2144 
Q 1053 2284 737 2584 
Q 422 2884 422 3419 
Q 422 4038 858 4394 
Q 1294 4750 2059 4750 
Q 2388 4750 2728 4690 
Q 3069 4631 3425 4513 
z
" transform="scale(0.015625)"/>
      <path id="DejaVuSans-2c" d="M 750 794 
L 1409 794 
L 1409 256 
L 897 -744 
L 494 -744 
L 750 256 
L 750 794 
z
" transform="scale(0.015625)"/>
      <path id="DejaVuSans-6b" d="M 581 4863 
L 1159 4863 
L 1159 1991 
L 2875 3500 
L 3609 3500 
L 1753 1863 
L 3688 0 
L 2938 0 
L 1159 1709 
L 1159 0 
L 581 0 
L 581 4863 
z
" transform="scale(0.015625)"/>
     </defs>
     <use xlink:href="#DejaVuSans-70"/>
     <use xlink:href="#DejaVuSans-68" transform="translate(63.476562 0)"/>
     <use xlink:href="#DejaVuSans-61" transform="translate(126.855469 0)"/>
     <use xlink:href="#DejaVuSans-73" transform="translate(188.134766 0)"/>
     <use xlink:href="#DejaVuSans-65" transform="translate(240.234375 0)"/>
     <use xlink:href="#DejaVuSans-20" transform="translate(301.757812 0)"/>
     <use xlink:href="#DejaVuSans-32" transform="translate(333.544922 0)"/>
     <use xlink:href="#DejaVuSans-20" transform="translate(397.167969 0)"/>
     <use xlink:href="#DejaVuSans-2014" transform="translate(428.955078 0)"/>
     <use xlink:href="#DejaVuSans-20" transform="translate(528.955078 0)"/>
     <use xlink:href="#DejaVuSans-4c" transform="translate(560.742188 0)"/>
     <use xlink:href="#DejaVuSans-69" transform="translate(616.455078 0)"/>
     <use xlink:href="#DejaVuSans-62" transform="translate(644.238281 0)"/>
     <use xlink:href="#DejaVuSans-72" transform="translate(707.714844 0)"/>
     <use xlink:href="#DejaVuSans-69" transform="translate(748.828125 0)"/>
     <use xlink:href="#DejaVuSans-53" transform="translate(776.611328 0)"/>
     <use xlink:href="#DejaVuSans-70" transform="translate(840.087891 0)"/>
     <use xlink:href="#DejaVuSans-65" transform="translate(903.564453 0)"/>
     <use xlink:href="#DejaVuSans-65" transform="translate(965.087891 0)"/>
     <use xlink:href="#DejaVuSans-63" transform="translate(1026.611328 0)"/>
     <use xlink:href="#DejaVuSans-68" transform="translate(1081.591797 0)"/>
     <use xlink:href="#DejaVuSans-20" transform="translate(1144.970703 0)"/>
     <use xlink:href="#DejaVuSans-39" transform="translate(1176.757812 0)"/>
     <use xlink:href="#DejaVuSans-36" transform="translate(1240.380859 0)"/>
     <use xlink:href="#DejaVuSans-30" transform="translate(1304.003906 0)"/>
     <use xlink:href="#DejaVuSans-20" transform="translate(1367.626953 0)"/>
     <use xlink:href="#DejaVuSans-68" transform="translate(1399.414062 0)"/>
     <use xlink:href="#DejaVuSans-2c" transform="translate(1462.792969 0)"/>
     <use xlink:href="#DejaVuSans-20" transform="translate(1494.580078 0)"/>
     <use xlink:href="#DejaVuSans-30" transform="translate(1526.367188 0)"/>
     <use xlink:href="#DejaVuSans-2e" transform="translate(1589.990234 0)"/>
     <use xlink:href="#DejaVuSans-39" transform="translate(1621.777344 0)"/>
     <use xlink:href="#DejaVuSans-36" transform="translate(1685.400391 0)"/>
     <use xlink:href="#DejaVuSans-20" transform="translate(1749.023438 0)"/>
     <use xlink:href="#DejaVuSans-73" transform="translate(1780.810547 0)"/>
     <use xlink:href="#DejaVuSans-20" transform="translate(1832.910156 0)"/>
     <use xlink:href="#DejaVuSans-62" transform="translate(1864.697266 0)"/>
     <use xlink:href="#DejaVuSans-6c" transform="translate(1928.173828 0)"/>
     <use xlink:href="#DejaVuSans-6f" transform="translate(1955.957031 0)"/>
     <use xlink:href="#DejaVuSans-63" transform="translate(2017.138672 0)"/>
     <use xlink:href="#DejaVuSans-6b" transform="translate(2072.119141 0)"/>
     <use xlink:href="#DejaVuSans-73" transform="translate(2130.029297 0)"/>
    </g>
   </g>
   <g id="text_21">
    <!-- phase 3 — mixed 0.96/1.92 s blocks -->
    <g style="fill: #9a9a9a" transform="translate(399.610192 30.570775) scale(0.08 -0.08)">
     <defs>
      <path id="DejaVuSans-78" d="M 3513 3500 
L 2247 1797 
L 3578 0 
L 2900 0 
L 1881 1375 
L 863 0 
L 184 0 
L 1544 1831 
L 300 3500 
L 978 3500 
L 1906 2253 
L 2834 3500 
L 3513 3500 
z
" transform="scale(0.015625)"/>
      <path id="DejaVuSans-2f" d="M 1625 4666 
L 2156 4666 
L 531 -594 
L 0 -594 
L 1625 4666 
z
" transform="scale(0.015625)"/>
     </defs>
     <use xlink:href="#DejaVuSans-70"/>
     <use xlink:href="#DejaVuSans-68" transform="translate(63.476562 0)"/>
     <use xlink:href="#DejaVuSans-61" transform="translate(126.855469 0)"/>
     <use xlink:href="#DejaVuSans-73" transform="translate(188.134766 0)"/>
     <use xlink:href="#DejaVuSans-65" transform="translate(240.234375 0)"/>
     <use xlink:href="#DejaVuSans-20" transform="translate(301.757812 0)"/>
     <use xlink:href="#DejaVuSans-33" transform="translate(333.544922 0)"/>
     <use xlink:href="#DejaVuSans-20" transform="translate(397.167969 0)"/>
     <use xlink:href="#DejaVuSans-2014" transform="translate(428.955078 0)"/>
     <use xlink:href="#DejaVuSans-20" transform="translate(528.955078 0)"/>
     <use xlink:href="#DejaVuSans-6d" transform="translate(560.742188 0)"/>
     <use xlink:href="#DejaVuSans-69" transform="translate(658.154297 0)"/>
     <use xlink:href="#DejaVuSans-78" transform="translate(685.9375 0)"/>
     <use xlink:href="#DejaVuSans-65" transform="translate(741.992188 0)"/>
     <use xlink:href="#DejaVuSans-64" transform="translate(803.515625 0)"/>
     <use xlink:href="#DejaVuSans-20" transform="translate(866.992188 0)"/>
     <use xlink:href="#DejaVuSans-30" transform="translate(898.779297 0)"/>
     <use xlink:href="#DejaVuSans-2e" transform="translate(962.402344 0)"/>
     <use xlink:href="#DejaVuSans-39" transform="translate(994.189453 0)"/>
     <use xlink:href="#DejaVuSans-36" transform="translate(1057.8125 0)"/>
     <use xlink:href="#DejaVuSans-2f" transform="translate(1121.435547 0)"/>
     <use xlink:href="#DejaVuSans-31" transform="translate(1155.126953 0)"/>
     <use xlink:href="#DejaVuSans-2e" transform="translate(1218.75 0)"/>
     <use xlink:href="#DejaVuSans-39" transform="translate(1250.537109 0)"/>
     <use xlink:href="#DejaVuSans-32" transform="translate(1314.160156 0)"/>
     <use xlink:href="#DejaVuSans-20" transform="translate(1377.783203 0)"/>
     <use xlink:href="#DejaVuSans-73" transform="translate(1409.570312 0)"/>
     <use xlink:href="#DejaVuSans-20" transform="translate(1461.669922 0)"/>
     <use xlink:href="#DejaVuSans-62" transform="translate(1493.457031 0)"/>
     <use xlink:href="#DejaVuSans-6c" transform="translate(1556.933594 0)"/>
     <use xlink:href="#DejaVuSans-6f" transform="translate(1584.716797 0)"/>
     <use xlink:href="#DejaVuSans-63" transform="translate(1645.898438 0)"/>
     <use xlink:href="#DejaVuSans-6b" transform="translate(1700.878906 0)"/>
     <use xlink:href="#DejaVuSans-73" transform="translate(1758.789062 0)"/>
    </g>
    <!-- + position-offset augmentation -->
    <g style="fill: #9a9a9a" transform="translate(409.312692 39.529025) scale(0.08 -0.08)">
     <defs>
      <path id="DejaVuSans-2b" d="M 2944 4013 
L 2944 2272 
L 4684 2272 
L 4684 1741 
L 2944 1741 
L 2944 0 
L 2419 0 
L 2419 1741 
L 678 1741 
L 678 2272 
L 2419 2272 
L 2419 4013 
L 2944 4013 
z
" transform="scale(0.015625)"/>
     </defs>
     <use xlink:href="#DejaVuSans-2b"/>
     <use xlink:href="#DejaVuSans-20" transform="translate(83.789062 0)"/>
     <use xlink:href="#DejaVuSans-70" transform="translate(115.576172 0)"/>
     <use xlink:href="#DejaVuSans-6f" transform="translate(179.052734 0)"/>
     <use xlink:href="#DejaVuSans-73" transform="translate(240.234375 0)"/>
     <use xlink:href="#DejaVuSans-69" transform="translate(292.333984 0)"/>
     <use xlink:href="#DejaVuSans-74" transform="translate(320.117188 0)"/>
     <use xlink:href="#DejaVuSans-69" transform="translate(359.326172 0)"/>
     <use xlink:href="#DejaVuSans-6f" transform="translate(387.109375 0)"/>
     <use xlink:href="#DejaVuSans-6e" transform="translate(448.291016 0)"/>
     <use xlink:href="#DejaVuSans-2d" transform="translate(511.669922 0)"/>
     <use xlink:href="#DejaVuSans-6f" transform="translate(549.628906 0)"/>
     <use xlink:href="#DejaVuSans-66" transform="translate(610.810547 0)"/>
     <use xlink:href="#DejaVuSans-66" transform="translate(646.015625 0)"/>
     <use xlink:href="#DejaVuSans-73" transform="translate(681.220703 0)"/>
     <use xlink:href="#DejaVuSans-65" transform="translate(733.320312 0)"/>
     <use xlink:href="#DejaVuSans-74" transform="translate(794.84375 0)"/>
     <use xlink:href="#DejaVuSans-20" transform="translate(834.052734 0)"/>
     <use xlink:href="#DejaVuSans-61" transform="translate(865.839844 0)"/>
     <use xlink:href="#DejaVuSans-75" transform="translate(927.119141 0)"/>
     <use xlink:href="#DejaVuSans-67" transform="translate(990.498047 0)"/>
     <use xlink:href="#DejaVuSans-6d" transform="translate(1053.974609 0)"/>
     <use xlink:href="#DejaVuSans-65" transform="translate(1151.386719 0)"/>
     <use xlink:href="#DejaVuSans-6e" transform="translate(1212.910156 0)"/>
     <use xlink:href="#DejaVuSans-74" transform="translate(1276.289062 0)"/>
     <use xlink:href="#DejaVuSans-61" transform="translate(1315.498047 0)"/>
     <use xlink:href="#DejaVuSans-74" transform="translate(1376.777344 0)"/>
     <use xlink:href="#DejaVuSans-69" transform="translate(1415.986328 0)"/>
     <use xlink:href="#DejaVuSans-6f" transform="translate(1443.769531 0)"/>
     <use xlink:href="#DejaVuSans-6e" transform="translate(1504.951172 0)"/>
    </g>
   </g>
   <g id="text_22">
    <!-- untrained block-causal: 0.755 -->
    <g style="fill: #9a9a9a" transform="translate(47.36126 76.080796) scale(0.075 -0.075)">
     <defs>
      <path id="DejaVuSans-3a" d="M 750 794 
L 1409 794 
L 1409 0 
L 750 0 
L 750 794 
z
M 750 3309 
L 1409 3309 
L 1409 2516 
L 750 2516 
L 750 3309 
z
" transform="scale(0.015625)"/>
     </defs>
     <use xlink:href="#DejaVuSans-75"/>
     <use xlink:href="#DejaVuSans-6e" transform="translate(63.378906 0)"/>
     <use xlink:href="#DejaVuSans-74" transform="translate(126.757812 0)"/>
     <use xlink:href="#DejaVuSans-72" transform="translate(165.966797 0)"/>
     <use xlink:href="#DejaVuSans-61" transform="translate(207.080078 0)"/>
     <use xlink:href="#DejaVuSans-69" transform="translate(268.359375 0)"/>
     <use xlink:href="#DejaVuSans-6e" transform="translate(296.142578 0)"/>
     <use xlink:href="#DejaVuSans-65" transform="translate(359.521484 0)"/>
     <use xlink:href="#DejaVuSans-64" transform="translate(421.044922 0)"/>
     <use xlink:href="#DejaVuSans-20" transform="translate(484.521484 0)"/>
     <use xlink:href="#DejaVuSans-62" transform="translate(516.308594 0)"/>
     <use xlink:href="#DejaVuSans-6c" transform="translate(579.785156 0)"/>
     <use xlink:href="#DejaVuSans-6f" transform="translate(607.568359 0)"/>
     <use xlink:href="#DejaVuSans-63" transform="translate(668.75 0)"/>
     <use xlink:href="#DejaVuSans-6b" transform="translate(723.730469 0)"/>
     <use xlink:href="#DejaVuSans-2d" transform="translate(781.640625 0)"/>
     <use xlink:href="#DejaVuSans-63" transform="translate(817.724609 0)"/>
     <use xlink:href="#DejaVuSans-61" transform="translate(872.705078 0)"/>
     <use xlink:href="#DejaVuSans-75" transform="translate(933.984375 0)"/>
     <use xlink:href="#DejaVuSans-73" transform="translate(997.363281 0)"/>
     <use xlink:href="#DejaVuSans-61" transform="translate(1049.462891 0)"/>
     <use xlink:href="#DejaVuSans-6c" transform="translate(1110.742188 0)"/>
     <use xlink:href="#DejaVuSans-3a" transform="translate(1138.525391 0)"/>
     <use xlink:href="#DejaVuSans-20" transform="translate(1172.216797 0)"/>
     <use xlink:href="#DejaVuSans-30" transform="translate(1204.003906 0)"/>
     <use xlink:href="#DejaVuSans-2e" transform="translate(1267.626953 0)"/>
     <use xlink:href="#DejaVuSans-37" transform="translate(1299.414062 0)"/>
     <use xlink:href="#DejaVuSans-35" transform="translate(1363.037109 0)"/>
     <use xlink:href="#DejaVuSans-35" transform="translate(1426.660156 0)"/>
    </g>
   </g>
   <g id="text_23">
    <!-- Held-out streaming WER during distillation (123k steps, ~6 H100-hours, audio only) -->
    <g transform="translate(39.58149 10.598678) scale(0.1 -0.1)">
     <defs>
      <path id="DejaVuSans-48" d="M 628 4666 
L 1259 4666 
L 1259 2753 
L 3553 2753 
L 3553 4666 
L 4184 4666 
L 4184 0 
L 3553 0 
L 3553 2222 
L 1259 2222 
L 1259 0 
L 628 0 
L 628 4666 
z
" transform="scale(0.015625)"/>
      <path id="DejaVuSans-7e" d="M 4684 2553 
L 4684 1997 
Q 4356 1750 4076 1644 
Q 3797 1538 3494 1538 
Q 3150 1538 2694 1722 
Q 2659 1734 2644 1741 
Q 2622 1750 2575 1766 
Q 2091 1959 1797 1959 
Q 1522 1959 1253 1839 
Q 984 1719 678 1459 
L 678 2016 
Q 1006 2263 1286 2370 
Q 1566 2478 1869 2478 
Q 2213 2478 2672 2291 
Q 2703 2278 2719 2272 
Q 2744 2263 2788 2247 
Q 3272 2053 3566 2053 
Q 3834 2053 4098 2172 
Q 4363 2291 4684 2553 
z
" transform="scale(0.015625)"/>
      <path id="DejaVuSans-79" d="M 2059 -325 
Q 1816 -950 1584 -1140 
Q 1353 -1331 966 -1331 
L 506 -1331 
L 506 -850 
L 844 -850 
Q 1081 -850 1212 -737 
Q 1344 -625 1503 -206 
L 1606 56 
L 191 3500 
L 800 3500 
L 1894 763 
L 2988 3500 
L 3597 3500 
L 2059 -325 
z
" transform="scale(0.015625)"/>
     </defs>
     <use xlink:href="#DejaVuSans-48"/>
     <use xlink:href="#DejaVuSans-65" transform="translate(75.195312 0)"/>
     <use xlink:href="#DejaVuSans-6c" transform="translate(136.71875 0)"/>
     <use xlink:href="#DejaVuSans-64" transform="translate(164.501953 0)"/>
     <use xlink:href="#DejaVuSans-2d" transform="translate(227.978516 0)"/>
     <use xlink:href="#DejaVuSans-6f" transform="translate(265.9375 0)"/>
     <use xlink:href="#DejaVuSans-75" transform="translate(327.119141 0)"/>
     <use xlink:href="#DejaVuSans-74" transform="translate(390.498047 0)"/>
     <use xlink:href="#DejaVuSans-20" transform="translate(429.707031 0)"/>
     <use xlink:href="#DejaVuSans-73" transform="translate(461.494141 0)"/>
     <use xlink:href="#DejaVuSans-74" transform="translate(513.59375 0)"/>
     <use xlink:href="#DejaVuSans-72" transform="translate(552.802734 0)"/>
     <use xlink:href="#DejaVuSans-65" transform="translate(591.666016 0)"/>
     <use xlink:href="#DejaVuSans-61" transform="translate(653.189453 0)"/>
     <use xlink:href="#DejaVuSans-6d" transform="translate(714.46875 0)"/>
     <use xlink:href="#DejaVuSans-69" transform="translate(811.880859 0)"/>
     <use xlink:href="#DejaVuSans-6e" transform="translate(839.664062 0)"/>
     <use xlink:href="#DejaVuSans-67" transform="translate(903.042969 0)"/>
     <use xlink:href="#DejaVuSans-20" transform="translate(966.519531 0)"/>
     <use xlink:href="#DejaVuSans-57" transform="translate(998.306641 0)"/>
     <use xlink:href="#DejaVuSans-45" transform="translate(1097.183594 0)"/>
     <use xlink:href="#DejaVuSans-52" transform="translate(1160.367188 0)"/>
     <use xlink:href="#DejaVuSans-20" transform="translate(1229.849609 0)"/>
     <use xlink:href="#DejaVuSans-64" transform="translate(1261.636719 0)"/>
     <use xlink:href="#DejaVuSans-75" transform="translate(1325.113281 0)"/>
     <use xlink:href="#DejaVuSans-72" transform="translate(1388.492188 0)"/>
     <use xlink:href="#DejaVuSans-69" transform="translate(1429.605469 0)"/>
     <use xlink:href="#DejaVuSans-6e" transform="translate(1457.388672 0)"/>
     <use xlink:href="#DejaVuSans-67" transform="translate(1520.767578 0)"/>
     <use xlink:href="#DejaVuSans-20" transform="translate(1584.244141 0)"/>
     <use xlink:href="#DejaVuSans-64" transform="translate(1616.03125 0)"/>
     <use xlink:href="#DejaVuSans-69" transform="translate(1679.507812 0)"/>
     <use xlink:href="#DejaVuSans-73" transform="translate(1707.291016 0)"/>
     <use xlink:href="#DejaVuSans-74" transform="translate(1759.390625 0)"/>
     <use xlink:href="#DejaVuSans-69" transform="translate(1798.599609 0)"/>
     <use xlink:href="#DejaVuSans-6c" transform="translate(1826.382812 0)"/>
     <use xlink:href="#DejaVuSans-6c" transform="translate(1854.166016 0)"/>
     <use xlink:href="#DejaVuSans-61" transform="translate(1881.949219 0)"/>
     <use xlink:href="#DejaVuSans-74" transform="translate(1943.228516 0)"/>
     <use xlink:href="#DejaVuSans-69" transform="translate(1982.4375 0)"/>
     <use xlink:href="#DejaVuSans-6f" transform="translate(2010.220703 0)"/>
     <use xlink:href="#DejaVuSans-6e" transform="translate(2071.402344 0)"/>
     <use xlink:href="#DejaVuSans-20" transform="translate(2134.78125 0)"/>
     <use xlink:href="#DejaVuSans-28" transform="translate(2166.568359 0)"/>
     <use xlink:href="#DejaVuSans-31" transform="translate(2205.582031 0)"/>
     <use xlink:href="#DejaVuSans-32" transform="translate(2269.205078 0)"/>
     <use xlink:href="#DejaVuSans-33" transform="translate(2332.828125 0)"/>
     <use xlink:href="#DejaVuSans-6b" transform="translate(2396.451172 0)"/>
     <use xlink:href="#DejaVuSans-20" transform="translate(2454.361328 0)"/>
     <use xlink:href="#DejaVuSans-73" transform="translate(2486.148438 0)"/>
     <use xlink:href="#DejaVuSans-74" transform="translate(2538.248047 0)"/>
     <use xlink:href="#DejaVuSans-65" transform="translate(2577.457031 0)"/>
     <use xlink:href="#DejaVuSans-70" transform="translate(2638.980469 0)"/>
     <use xlink:href="#DejaVuSans-73" transform="translate(2702.457031 0)"/>
     <use xlink:href="#DejaVuSans-2c" transform="translate(2754.556641 0)"/>
     <use xlink:href="#DejaVuSans-20" transform="translate(2786.34375 0)"/>
     <use xlink:href="#DejaVuSans-7e" transform="translate(2818.130859 0)"/>
     <use xlink:href="#DejaVuSans-36" transform="translate(2901.919922 0)"/>
     <use xlink:href="#DejaVuSans-20" transform="translate(2965.542969 0)"/>
     <use xlink:href="#DejaVuSans-48" transform="translate(2997.330078 0)"/>
     <use xlink:href="#DejaVuSans-31" transform="translate(3072.525391 0)"/>
     <use xlink:href="#DejaVuSans-30" transform="translate(3136.148438 0)"/>
     <use xlink:href="#DejaVuSans-30" transform="translate(3199.771484 0)"/>
     <use xlink:href="#DejaVuSans-2d" transform="translate(3263.394531 0)"/>
     <use xlink:href="#DejaVuSans-68" transform="translate(3299.478516 0)"/>
     <use xlink:href="#DejaVuSans-6f" transform="translate(3362.857422 0)"/>
     <use xlink:href="#DejaVuSans-75" transform="translate(3424.039062 0)"/>
     <use xlink:href="#DejaVuSans-72" transform="translate(3487.417969 0)"/>
     <use xlink:href="#DejaVuSans-73" transform="translate(3528.53125 0)"/>
     <use xlink:href="#DejaVuSans-2c" transform="translate(3580.630859 0)"/>
     <use xlink:href="#DejaVuSans-20" transform="translate(3612.417969 0)"/>
     <use xlink:href="#DejaVuSans-61" transform="translate(3644.205078 0)"/>
     <use xlink:href="#DejaVuSans-75" transform="translate(3705.484375 0)"/>
     <use xlink:href="#DejaVuSans-64" transform="translate(3768.863281 0)"/>
     <use xlink:href="#DejaVuSans-69" transform="translate(3832.339844 0)"/>
     <use xlink:href="#DejaVuSans-6f" transform="translate(3860.123047 0)"/>
     <use xlink:href="#DejaVuSans-20" transform="translate(3921.304688 0)"/>
     <use xlink:href="#DejaVuSans-6f" transform="translate(3953.091797 0)"/>
     <use xlink:href="#DejaVuSans-6e" transform="translate(4014.273438 0)"/>
     <use xlink:href="#DejaVuSans-6c" transform="translate(4077.652344 0)"/>
     <use xlink:href="#DejaVuSans-79" transform="translate(4105.435547 0)"/>
     <use xlink:href="#DejaVuSans-29" transform="translate(4164.615234 0)"/>
    </g>
   </g>
   <g id="legend_1">
    <g id="line2d_33">
     <path d="M 425.80976 116.086094 
L 433.80976 116.086094 
L 441.80976 116.086094 
" style="fill: none; stroke: #0a66a3; stroke-width: 1.6; stroke-linecap: square"/>
     <g>
      <use xlink:href="#mefe39bd428" x="433.80976" y="116.086094" style="fill: #0a66a3; stroke: #0a66a3"/>
     </g>
    </g>
    <g id="text_24">
     <!-- streaming gate WER @0.96 s blocks -->
     <g transform="translate(448.20976 118.886094) scale(0.08 -0.08)">
      <defs>
       <path id="DejaVuSans-40" d="M 2381 1678 
Q 2381 1231 2603 976 
Q 2825 722 3213 722 
Q 3597 722 3817 978 
Q 4038 1234 4038 1678 
Q 4038 2116 3813 2373 
Q 3588 2631 3206 2631 
Q 2828 2631 2604 2375 
Q 2381 2119 2381 1678 
z
M 4084 744 
Q 3897 503 3655 389 
Q 3413 275 3091 275 
Q 2553 275 2217 664 
Q 1881 1053 1881 1678 
Q 1881 2303 2218 2693 
Q 2556 3084 3091 3084 
Q 3413 3084 3656 2967 
Q 3900 2850 4084 2613 
L 4084 3022 
L 4531 3022 
L 4531 722 
Q 4988 791 5245 1139 
Q 5503 1488 5503 2041 
Q 5503 2375 5404 2669 
Q 5306 2963 5106 3213 
Q 4781 3622 4314 3839 
Q 3847 4056 3297 4056 
Q 2913 4056 2559 3954 
Q 2206 3853 1906 3653 
Q 1416 3334 1139 2817 
Q 863 2300 863 1697 
Q 863 1200 1042 765 
Q 1222 331 1563 0 
Q 1891 -325 2322 -495 
Q 2753 -666 3244 -666 
Q 3647 -666 4036 -530 
Q 4425 -394 4750 -141 
L 5031 -488 
Q 4641 -791 4180 -952 
Q 3719 -1113 3244 -1113 
Q 2666 -1113 2153 -908 
Q 1641 -703 1241 -313 
Q 841 78 631 592 
Q 422 1106 422 1697 
Q 422 2266 634 2781 
Q 847 3297 1241 3688 
Q 1644 4084 2172 4295 
Q 2700 4506 3291 4506 
Q 3953 4506 4520 4234 
Q 5088 3963 5472 3463 
Q 5706 3156 5829 2797 
Q 5953 2438 5953 2053 
Q 5953 1231 5456 756 
Q 4959 281 4084 263 
L 4084 744 
z
" transform="scale(0.015625)"/>
      </defs>
      <use xlink:href="#DejaVuSans-73"/>
      <use xlink:href="#DejaVuSans-74" transform="translate(52.099609 0)"/>
      <use xlink:href="#DejaVuSans-72" transform="translate(91.308594 0)"/>
      <use xlink:href="#DejaVuSans-65" transform="translate(130.171875 0)"/>
      <use xlink:href="#DejaVuSans-61" transform="translate(191.695312 0)"/>
      <use xlink:href="#DejaVuSans-6d" transform="translate(252.974609 0)"/>
      <use xlink:href="#DejaVuSans-69" transform="translate(350.386719 0)"/>
      <use xlink:href="#DejaVuSans-6e" transform="translate(378.169922 0)"/>
      <use xlink:href="#DejaVuSans-67" transform="translate(441.548828 0)"/>
      <use xlink:href="#DejaVuSans-20" transform="translate(505.025391 0)"/>
      <use xlink:href="#DejaVuSans-67" transform="translate(536.8125 0)"/>
      <use xlink:href="#DejaVuSans-61" transform="translate(600.289062 0)"/>
      <use xlink:href="#DejaVuSans-74" transform="translate(661.568359 0)"/>
      <use xlink:href="#DejaVuSans-65" transform="translate(700.777344 0)"/>
      <use xlink:href="#DejaVuSans-20" transform="translate(762.300781 0)"/>
      <use xlink:href="#DejaVuSans-57" transform="translate(794.087891 0)"/>
      <use xlink:href="#DejaVuSans-45" transform="translate(892.964844 0)"/>
      <use xlink:href="#DejaVuSans-52" transform="translate(956.148438 0)"/>
      <use xlink:href="#DejaVuSans-20" transform="translate(1025.630859 0)"/>
      <use xlink:href="#DejaVuSans-40" transform="translate(1057.417969 0)"/>
      <use xlink:href="#DejaVuSans-30" transform="translate(1157.417969 0)"/>
      <use xlink:href="#DejaVuSans-2e" transform="translate(1221.041016 0)"/>
      <use xlink:href="#DejaVuSans-39" transform="translate(1252.828125 0)"/>
      <use xlink:href="#DejaVuSans-36" transform="translate(1316.451172 0)"/>
      <use xlink:href="#DejaVuSans-20" transform="translate(1380.074219 0)"/>
      <use xlink:href="#DejaVuSans-73" transform="translate(1411.861328 0)"/>
      <use xlink:href="#DejaVuSans-20" transform="translate(1463.960938 0)"/>
      <use xlink:href="#DejaVuSans-62" transform="translate(1495.748047 0)"/>
      <use xlink:href="#DejaVuSans-6c" transform="translate(1559.224609 0)"/>
      <use xlink:href="#DejaVuSans-6f" transform="translate(1587.007812 0)"/>
      <use xlink:href="#DejaVuSans-63" transform="translate(1648.189453 0)"/>
      <use xlink:href="#DejaVuSans-6b" transform="translate(1703.169922 0)"/>
      <use xlink:href="#DejaVuSans-73" transform="translate(1761.080078 0)"/>
     </g>
    </g>
    <g id="line2d_34">
     <path d="M 425.80976 127.828594 
L 433.80976 127.828594 
L 441.80976 127.828594 
" style="fill: none; stroke: #c2542e; stroke-width: 1.6; stroke-linecap: square"/>
     <g>
      <use xlink:href="#mdeab1b98d5" x="433.80976" y="127.828594" style="fill: #c2542e; stroke: #c2542e; stroke-linejoin: miter"/>
     </g>
    </g>
    <g id="text_25">
     <!-- @1.92 s blocks -->
     <g transform="translate(448.20976 130.628594) scale(0.08 -0.08)">
      <use xlink:href="#DejaVuSans-40"/>
      <use xlink:href="#DejaVuSans-31" transform="translate(100 0)"/>
      <use xlink:href="#DejaVuSans-2e" transform="translate(163.623047 0)"/>
      <use xlink:href="#DejaVuSans-39" transform="translate(195.410156 0)"/>
      <use xlink:href="#DejaVuSans-32" transform="translate(259.033203 0)"/>
      <use xlink:href="#DejaVuSans-20" transform="translate(322.65625 0)"/>
      <use xlink:href="#DejaVuSans-73" transform="translate(354.443359 0)"/>
      <use xlink:href="#DejaVuSans-20" transform="translate(406.542969 0)"/>
      <use xlink:href="#DejaVuSans-62" transform="translate(438.330078 0)"/>
      <use xlink:href="#DejaVuSans-6c" transform="translate(501.806641 0)"/>
      <use xlink:href="#DejaVuSans-6f" transform="translate(529.589844 0)"/>
      <use xlink:href="#DejaVuSans-63" transform="translate(590.771484 0)"/>
      <use xlink:href="#DejaVuSans-6b" transform="translate(645.751953 0)"/>
      <use xlink:href="#DejaVuSans-73" transform="translate(703.662109 0)"/>
     </g>
    </g>
    <g id="line2d_35">
     <path d="M 425.80976 139.571094 
L 433.80976 139.571094 
L 441.80976 139.571094 
" style="fill: none; stroke: #6b9e3f; stroke-width: 1.4; stroke-linecap: square"/>
     <g>
      <use xlink:href="#mb810677c37" x="433.80976" y="139.571094" style="fill: #6b9e3f; stroke: #6b9e3f; stroke-linejoin: miter"/>
     </g>
    </g>
    <g id="text_26">
     <!-- @0.96 s, position offset 4000 (≈85 min) -->
     <g transform="translate(448.20976 142.371094) scale(0.08 -0.08)">
      <defs>
       <path id="DejaVuSans-2248" d="M 4684 1947 
L 4684 1388 
Q 4356 1144 4076 1036 
Q 3797 928 3494 928 
Q 3150 928 2694 1113 
Q 2663 1125 2641 1134 
Q 2622 1141 2575 1159 
Q 2091 1350 1797 1350 
Q 1522 1350 1253 1231 
Q 984 1113 678 850 
L 678 1409 
Q 1006 1653 1286 1761 
Q 1566 1869 1869 1869 
Q 2213 1869 2672 1684 
Q 2706 1669 2722 1663 
Q 2741 1656 2788 1638 
Q 3272 1447 3566 1447 
Q 3834 1447 4098 1564 
Q 4363 1681 4684 1947 
z
M 4684 3163 
L 4684 2606 
Q 4356 2359 4076 2251 
Q 3797 2144 3494 2144 
Q 3150 2144 2694 2328 
Q 2663 2341 2641 2350 
Q 2622 2356 2575 2375 
Q 2091 2566 1797 2566 
Q 1522 2566 1253 2447 
Q 984 2328 678 2069 
L 678 2625 
Q 1006 2869 1286 2976 
Q 1566 3084 1869 3084 
Q 2213 3084 2672 2900 
Q 2703 2888 2719 2881 
Q 2741 2872 2788 2853 
Q 3272 2663 3566 2663 
Q 3834 2663 4098 2780 
Q 4363 2897 4684 3163 
z
" transform="scale(0.015625)"/>
      </defs>
      <use xlink:href="#DejaVuSans-40"/>
      <use xlink:href="#DejaVuSans-30" transform="translate(100 0)"/>
      <use xlink:href="#DejaVuSans-2e" transform="translate(163.623047 0)"/>
      <use xlink:href="#DejaVuSans-39" transform="translate(195.410156 0)"/>
      <use xlink:href="#DejaVuSans-36" transform="translate(259.033203 0)"/>
      <use xlink:href="#DejaVuSans-20" transform="translate(322.65625 0)"/>
      <use xlink:href="#DejaVuSans-73" transform="translate(354.443359 0)"/>
      <use xlink:href="#DejaVuSans-2c" transform="translate(406.542969 0)"/>
      <use xlink:href="#DejaVuSans-20" transform="translate(438.330078 0)"/>
      <use xlink:href="#DejaVuSans-70" transform="translate(470.117188 0)"/>
      <use xlink:href="#DejaVuSans-6f" transform="translate(533.59375 0)"/>
      <use xlink:href="#DejaVuSans-73" transform="translate(594.775391 0)"/>
      <use xlink:href="#DejaVuSans-69" transform="translate(646.875 0)"/>
      <use xlink:href="#DejaVuSans-74" transform="translate(674.658203 0)"/>
      <use xlink:href="#DejaVuSans-69" transform="translate(713.867188 0)"/>
      <use xlink:href="#DejaVuSans-6f" transform="translate(741.650391 0)"/>
      <use xlink:href="#DejaVuSans-6e" transform="translate(802.832031 0)"/>
      <use xlink:href="#DejaVuSans-20" transform="translate(866.210938 0)"/>
      <use xlink:href="#DejaVuSans-6f" transform="translate(897.998047 0)"/>
      <use xlink:href="#DejaVuSans-66" transform="translate(959.179688 0)"/>
      <use xlink:href="#DejaVuSans-66" transform="translate(994.384766 0)"/>
      <use xlink:href="#DejaVuSans-73" transform="translate(1029.589844 0)"/>
      <use xlink:href="#DejaVuSans-65" transform="translate(1081.689453 0)"/>
      <use xlink:href="#DejaVuSans-74" transform="translate(1143.212891 0)"/>
      <use xlink:href="#DejaVuSans-20" transform="translate(1182.421875 0)"/>
      <use xlink:href="#DejaVuSans-34" transform="translate(1214.208984 0)"/>
      <use xlink:href="#DejaVuSans-30" transform="translate(1277.832031 0)"/>
      <use xlink:href="#DejaVuSans-30" transform="translate(1341.455078 0)"/>
      <use xlink:href="#DejaVuSans-30" transform="translate(1405.078125 0)"/>
      <use xlink:href="#DejaVuSans-20" transform="translate(1468.701172 0)"/>
      <use xlink:href="#DejaVuSans-28" transform="translate(1500.488281 0)"/>
      <use xlink:href="#DejaVuSans-2248" transform="translate(1539.501953 0)"/>
      <use xlink:href="#DejaVuSans-38" transform="translate(1623.291016 0)"/>
      <use xlink:href="#DejaVuSans-35" transform="translate(1686.914062 0)"/>
      <use xlink:href="#DejaVuSans-20" transform="translate(1750.537109 0)"/>
      <use xlink:href="#DejaVuSans-6d" transform="translate(1782.324219 0)"/>
      <use xlink:href="#DejaVuSans-69" transform="translate(1879.736328 0)"/>
      <use xlink:href="#DejaVuSans-6e" transform="translate(1907.519531 0)"/>
      <use xlink:href="#DejaVuSans-29" transform="translate(1970.898438 0)"/>
     </g>
    </g>
   </g>
  </g>
 </g>
 <defs>
  <clipPath id="p5673d90c2e">
   <rect x="39.58149" y="16.598678" width="576.61827" height="223.644832"/>
  </clipPath>
 </defs>
</svg>
